<svg xmlns="http://www.w3.org/2000/svg" width="20.29" height="18.84" viewBox="0 0 20.29 18.84"><path d="M17.01 11.56H3.27l-.81-2.84h15.36zm-1.65 5.78H4.93L3.7 13.06h12.88zm4.18-10.12h-3.15L12.98.41c-.18-.37-.63-.51-1.01-.34a.75.75 0 00-.33 1.01l3.07 6.14H5.57l3.07-6.14A.75.75 0 008.31.07.772.772 0 007.3.41L3.9 7.22H.74c-.41 0-.74.34-.74.75 0 .42.33.75.74.75H.9l.86 2.99c-.19.14-.32.35-.32.6 0 .4.31.71.7.74l1.65 5.79h12.7l1.66-5.79c.38-.03.69-.34.69-.74 0-.25-.13-.46-.31-.6l.85-2.99h.16a.749.749 0 100-1.5" fill="#231f20"/></svg>