<svg xmlns="http://www.w3.org/2000/svg" width="24.82" height="24.33" viewBox="0 0 24.82 24.33"><style>.st0{fill:#62d1ba}</style><path class="st0" d="M17.32 24.33H16.2c-4.9-.58-8.5-2.86-11.11-5.77C2.47 15.63.4 11.87 0 6.81V5.45c.09-.92.54-1.55 1.06-2.08.65-.67 1.63-1.52 2.52-1.56.66-.02 1.78.46 2.24 1.07.38.53.59 1.59.77 2.38.19.8.6 1.95.49 2.72-.18 1.19-1.77 1.7-2.24 2.57 1.56 3.72 4.09 6.45 7.48 8.34.84-.46 1.59-1.86 2.76-1.89.43-.01.97.21 1.41.34.48.14.89.33 1.31.49.7.26 1.96.62 2.38 1.21.43.61.68 1.61.58 2.23-.19 1.23-2.23 2.6-3.44 3.06m-4.8-22.81c5.95 0 10.77 4.82 10.77 10.77h1.53C24.82 5.5 19.32 0 12.52 0z"/><path class="st0" d="M12.52 9.32v1.55c.79 0 1.42.64 1.42 1.42h1.56c0-1.64-1.33-2.97-2.98-2.97m0-3.08c3.35 0 6.06 2.71 6.06 6.06h1.59a7.65 7.65 0 00-7.65-7.65z"/></svg>