<svg xmlns="http://www.w3.org/2000/svg" width="14.96" height="27.71" viewBox="0 0 14.96 27.71"><path d="M7.84 9.97c.12.25.25.49.41.7.08.02.21 0 .21.1 1.19.05 2.2-.07 3.09-.3 0 1-.27 1.73-.51 2.49-.67.05-1.47.3-1.96.2-.28.16-.37.51-.62.7-.05.44.14.49 0 .79-.2.14-.06.62-.21.8v1.5c.09.28-.14.25-.1.49v3.49c-.08.28.15.26.1.5v2.99c.07.27-.13.79.11.9-.07.36-.42-.02-.83.1-.53.12-.92.36-1.55.4.12-.36.32-.63.31-1.1.05-.38-.36-.31-.51-.5.19-.64.56-1.12.72-1.79.2-.52.71-1.3.31-1.8-.52-.1-.52.3-.83.4-.02.08 0 .2-.1.2-.02.08 0 .2-.1.2.01.12-.15.06 0 0 .02-.08 0-.2.1-.2.02-.08 0-.2.1-.2v-.3c.37-.57.67-1.21.83-1.99.19-.28.28-.66.41-1 .16-.26.34-.87.11-1.19-.52.03-.8.29-.93.7-.32-.19.16-.44.1-.7.14-.23.17-.57.31-.8.2-.41.56-1.3 0-1.59-.44-.03-.61.2-.72.49-.22.2-.43.39-.52.7-.37-.07-.14-.72-.2-1.09-.07-.52.12-.9 0-1.2-.56-.8-2.03-.11-3.2-.3-.11-.31-.22-.98-.1-1.19 1.04-.09 2.47.2 3.19-.2.03-.08.01-.2.11-.2.09-.73-.28-1-.52-1.4.23-.8.04-2.02.1-2.99.24-.14.33-.41.52-.6.11-.95.67-1.47.72-2.49-.27 0-.61-.05-.62.2-.3-.11-.38.48-.51.2-.12-.54.24-.62.31-1 .59-.41 1.21-.82 1.85-1.19 1.74-.25 4.65-.45 6.09.2.05.61-.29.85-.21 1.49h-1.54c-1.1.24-1.99.67-3 1-.24.07-.27.33-.51.4-.04.4-.23.65-.31.99-.08 1.44.13 2.6.1 3.99m3.82-4.78c1.02.03 1.99 0 2.68-.3.39-.82.55-1.86.62-2.99-.19-.02-.07-.34-.21-.4-.03-.2-.28-.2-.31-.4-.28-.16-.46-.42-.72-.6-.73-.16-1.44-.33-2.17-.49-.84.04-1.89-.1-2.58.09C6.36.06 4.98 1.22 3.71 2.5c-.02.07 0 .19-.1.2-.57 1.58-.12 3.62-.2 5.58.09.43.1.96.2 1.39-1 .3-2.21.39-3.4.5-.31.32-.18 1.09-.21 1.69.09.59.28 1.06.41 1.6.22.19.6.39.83.5.06.03.07.08.1.1.51.26 1.45 0 2.27.1-.14 1.97.26 3.91 0 5.68.01.32.29.38.21.79 0 .97-.07 1.99.21 2.69-.29.46-.5.99-.42 1.8.12.01.11.15.1.3-.07.47.65.17.52.69.16.46-.43.19-.41.5v.9c.53.28 1.46.18 2.27.2.9-.42 2.18-.48 2.78-1.2.46.24.92-.01 1.24-.2-.02-.31.27-.33.2-.7 0-.32-.17-.49-.1-.89v-2.89c-.2-2.29-.05-4.94-.31-7.18.89-.1 1.92-.07 2.58-.39.36-.46.38-1.24.52-1.9.17-.22.22-.58.2-1 .19-.21.07-.72.11-1.09-.14-.6-.17-1.3-.83-1.4-.88-.23-2.04.6-2.99.3.05-1.13-.29-2.34 0-3.39.75-.17 1.45-.39 2.17-.59" fill="#231f20"/></svg>