<svg xmlns="http://www.w3.org/2000/svg" width="23.49" height="20.16" viewBox="0 0 23.49 20.16"><path d="M14.85 5.56c.17.14.29.31.52.37.1.22.32.33.59.37.05-.15.35-.05.37-.22.18-.02.17-.23.3-.3-.02-.55-.13-1-.37-1.33-.76-.42-1.68.04-1.41 1.11m5.49-3.04c-.13.34-.23.71-.6.82-.01-.11-.12-.13-.14-.22-.02-.21.2-.19.29-.3.16-.09.25-.25.45-.3-.01-.09.1-.04 0 0m-.3 5.63c-.15.86-.62 1.41-1.04 2.01.06.37-.1.53-.07.88-.16.32-.29.66-.37 1.04-.21.27-.33.61-.52.89-.37.55-.78 1.05-1.19 1.56-.37.56-.91.96-1.33 1.48-.42.49-.94.88-1.41 1.33-.47.17-.89.4-1.26.67-.23.09-.46.18-.66.3-.18.14-.5.14-.67.29-1.09.15-2.3.17-3.56.15-1.03-.1-2.11-.16-3.04-.37-.92-.19-1.51-.71-2.29-1.04.15-.24.63-.15.96-.22.03-.16.39 0 .44-.15.26.06.29-.11.52-.07.57-.2 1.23-.3 1.71-.59.28-.14.4-.44.66-.6.04-.19.11-.34.23-.44.04-.28.2-.44.14-.82.12-.21.3-.34.3-.66-.07-.15-.13-.32-.3-.38-.02-.19-.37-.06-.44-.22-.25.04-.42-.03-.59-.07-.16-.04-.49.09-.52-.08-.84-.02-1.3-.42-1.85-.74.43-.26 1.03-.35 1.33-.74.52-.07 1.06-.13 1.11-.66 0-.72-.77-.66-1.33-.82-.78-.66-1.2-1.67-1.78-2.52.24-.16.56-.22.74-.44.45.05.54-.25.67-.52.02-.49-.34-.61-.6-.82-.25-.21-.47-.46-.66-.74-.01-.82-.02-1.65.07-2.37.06-.01.07.03.08.07.22.45.55.78.81 1.19.53.36.93.85 1.56 1.11.45.41 1.11.62 1.55 1.04.6.26 1.16.57 1.71.89.67.19 1.05.67 2 .59.2-.1.39-.2.59-.3.26-.45-.06-1.07.15-1.63.25-.65.8-1.03 1.26-1.48.29-.15.55-.33.81-.52.35-.09.68-.21.97-.37.37-.02.71-.07 1.03-.14h1.26c.25.05.48.11.74.14.21.14.38.32.67.37.79.7 1.27 1.7 1.41 3.04-.12.49.05.88 0 1.48m3.41-4.07c-.23-.37-.91-.28-1.41-.37h-1.11c.14-.35.34-.65.52-.97.05-.43.25-.73.22-1.26.13-.16.18-.41.3-.59.1-.14.24-.48.07-.66-.05-.23-.29-.24-.59-.23-.09.04-.17.08-.22.15-.45.43-.78 1.01-1.26 1.41-.01.01-.07 0-.08 0-.09 0-.03.05-.07.07-.15.1-.26.16-.37.23-.29.17-.55.44-.89.51-.53-.21-1.16-.32-1.85-.37-1.16.11-2.31.22-3.04.75-.91.34-1.48 1.04-2.15 1.63-.05.32-.34.39-.37.74-.01.04-.01.08-.08.07.05.24-.05.35-.07.52 0 .13.2.43 0 .52-.82-.12-1.49-.63-2.15-.97-.72-.36-1.47-.6-2.07-1.11-.72-.32-1.26-.81-1.78-1.33-.21-.31-.54-.5-.67-.89-.38-.16-.17-.91-.74-.89-.32-.04-.34.2-.44.37-.07.23-.37.23-.38.52 0 .05-.01.09-.07.07-.17 1.09-.53 2-.52 3.26.13.42.35.74.59 1.04-.41.05-.71.22-.89.52-.05 1.07.38 1.65.75 2.3.13.38.35.68.59.96.02.23.21.29.3.45.01.1.12.12.14.22-.04.1.29.18.08.22-.42.13-1.02.07-1.26.37-.11.28-.11.83 0 1.11.03.24.28.26.29.52.5.42 1.09.75 1.64 1.11.57.17 1.21.27 1.85.37-.1.35-.34.55-.6.74-.78.39-1.84.48-2.74.74-.55.04-.95.23-1.55.23-.34.12-.86.07-1.12.22-.12.07-.1.1-.22.22-.12.41.11.74.45.89-.01.25.22.28.37.37.09.18.25.29.44.37.55.47 1.27.76 1.93 1.11.83.19 1.65.38 2.52.52.89.12 1.9.13 2.81.22h.97c.51.14 1.23.06 1.85.08.09-.1.32-.08.52-.08.52-.26 1.19-.38 1.63-.74.57-.24.99-.64 1.56-.89.86-.76 1.93-1.32 2.51-2.37.21-.19.36-.44.45-.74.26-.15.38-.45.59-.67.41-.41.71-.92 1.04-1.4.32-.5.58-1.06.89-1.56-.01-.4.31-.48.3-.89.19-.22.17-.66.37-.89-.04-.25.03-.41.07-.59.05-1.28-.05-2.42-.3-3.41.59-.15 1.18-.3 1.63-.59.53-.19 1-.58.82-1.26" fill="#231f20"/></svg>