<svg xmlns="http://www.w3.org/2000/svg" width="21.76" height="21.33" viewBox="0 0 21.76 21.33"><path d="M13.18 7.66c.21.12.44.22.61.38.08.22.24.37.38.53.06.78.18 1.49.15 2.36-.26.09-.44.27-.68.38-.78-.01-1.36-.21-1.9-.46-.17-.26-.36-.5-.53-.76V9.03c.17-.19.32-.39.45-.61.23-.12.51-.2.46-.61a.364.364 0 01-.08-.22c.16.04.25.16.38.22.32.02.41-.2.76-.15m1.14 3.8c-.23-.06-.14.21-.38.15.07-.16.12-.34.23-.46.13.02.17.13.15.31m-2.2 2.58c.03-.11.07.01.15 0-.02.1-.15.07-.15 0m-.76-2.89c-.04-.03.05-.09.08-.07.04.04-.06.1-.08.07m-.38-3.94c-.2.25.04.57.08.83-.31-.04-.58-.89-.08-.83M9.31 9.33c.02-.08.08-.04.08 0-.02.09-.08.05-.08 0m-.46 2.05c.05-.11.08 0 .08.08-.04.11-.08 0-.08-.08m-.07-.3c-.11-.07-.11-.25-.15-.38.25-.08.11.23.15.38m3.41-4.33c-.22-.23-.67-.23-.98-.38-.7-.04-1.22.09-1.75.23-.3.15-.61.3-.91.45-.26.17-.44.42-.76.54-.2.22-.35.51-.68.6-.01.23-.17.28-.31.38-.08.12-.09.31-.22.38-.01.12.03.29-.08.31.11 1.51.29 2.94.68 4.17.29.63.98.85 1.45 1.29.59.3 1.32.45 2.12.53.28-.05.56-.1.91-.07 1.21-.21 2.1-.74 2.81-1.44.1-.28.26-.51.46-.69-.26-.67.29-1.09.45-1.59.01-1.35-.2-2.48-.6-3.42-.26-.58-.92-.75-1.37-1.14-.06-.01-.15 0-.15-.07-.27-.13-.73-.24-1.07-.08m1.14-1.82c-.11.05.01.09 0 0m-2.81-.61c.03.02.12-.04.08-.07-.02-.03-.11.03-.08.07m.54-.38c-.32-.07-.02.23 0 0m2.27.99c.54-.05.75-.42 1.22-.53.28-.3.78-.38.99-.76-.56.02-.77.4-1.22.53-.28.3-.75.41-.99.76m-2.27-.99c.34-.13.61-.35.83-.61-.35.14-.61.35-.83.61m.83-.61c.07.02.07-.03.08-.07-.07-.01-.07.03-.08.07m.08-.07c.06.01.07-.03.07-.08-.06-.01-.07.03-.07.08m.07-.08c.11-.04 0-.09 0 0m.69-.61c-.11.05 0 .1 0 0m.68.84c.73-.16 1.18-.59 1.75-.91-.44.02-.6.32-.99.38-.22.21-.6.26-.76.53m1.75-.91c.11-.05-.01-.09 0 0m-1.07-.61c-.53.16-1.01.35-1.36.68.48-.19 1.06-.3 1.36-.68m0 0c.11-.05-.01-.09 0 0m5.85 3.72c-.64-.12-1.23-.28-1.9-.38.07-.33.8-.01.99-.22.38-.23.29-.92.3-1.52.03-.35.12-.65.08-1.07-.4-.95-1.79-.42-2.89-.45-.22.72-.47 1.8-.3 2.66.17.48 1.02.29 1.52.45-.14.33-.69.06-.99.08-.3-.09-.71-.06-.99-.15-2.28.07-4.28 0-6.53.15.12-1.25.07-2.47-.07-3.65h3.11c-.34.37-.91.51-1.29.84-.44.24-.86.5-1.14.91.25.13.54-.25.76-.38.36-.07.48-.38.84-.46.42-.43 1.09-.62 1.67-.91.37-.02.69.02.98.08 1.29.01 2.46.13 3.8.07.61.15 1.45.07 1.97.31.11.3.23.58.31.91.01 1-.15 1.83-.23 2.73m-.38 11.16c-.11.96-.16 1.97-.38 2.81-2.89.12-6.02.01-8.88.15-.2.05-.28-.03-.23-.22-.25 0-.26.24-.53.22.2-.33.44-.89.15-1.29-.8.02-.8.83-1.14 1.29-.68-.05-1.14.13-1.82.08.18-.71.75-1.02.91-1.75-.4-.54-.99.14-1.21.46-.21.48-.56.81-.76 1.29h-.99c.24-.47.49-.93.76-1.37.17-.51.62-.74.68-1.36-.16-.28-.42-.03-.68 0-.12.18-.27.33-.38.53-.23.37-.5.71-.69 1.14-.18.2-.33 0-.53.22-.38.28-.58.74-.98.99-.18-.06.04-.36.15-.38.05-.18-.1-.55.07-.61.07-.36.22-.64.38-.91.12-.74.53-1.2.69-1.89-.56.09-.68.64-.99.98-.21.45-.54.78-.68 1.29-.18-.13-.03-.58-.08-.83.12-.59.3-1.12.38-1.75.13-.22.17-.53.23-.83.17-.21.05-.61-.08-.76-.22.02-.37.13-.45.3-.19-.03-.2.51-.31.3-.04-2.58-.45-4.81-.45-7.44.02-.33-.18-.42-.23-.68 1.63.03 3.12.09 4.78.23-.09.14-.2.26-.3.38-.14.07-.23.17-.38.3-.6 1.65-.97 3.99-.61 6.15.23.58.59 1.03.99 1.44.91.49 1.63 1.15 2.51 1.68 1.7.36 3.84.36 5.54 0 .23-.13.48-.23.68-.39 1.37-1.24 2.75-2.45 2.96-4.86v-1.36c-.2-1.6-.69-2.91-1.75-3.65.34-.21 1.1.05 1.67.08.23.01.45.01.69 0 .41-.02.93-.05 1.44 0 .15.19.12.54.23.76-.06 1.68-.19 3.3-.15 5.09.1.45.12.98.23 1.44-.09.97-.24 1.89-.46 2.73M1.34 5.69v-1.6c.19-.18.39-.36.61-.53.29.49.17 1.39.45 1.9-.27.16-.75.11-1.06.23m-.08-3.27c.23-.2.45-.41.69-.6-.03-.13.07-.14.07-.23h.23c.1.38-.26.29-.3.53.02.12-.08.13-.08.23.02.33.12.58.08.98-.27.01-.28.28-.61.23.02-.43-.14-.67-.08-1.14m.46-.76c-.04.22-.33.18-.38.38-.22-.17.08-.46.38-.38m.98-.07c.03.26-.43.32-.37 0zm.69 3.72c.15-.03.11.34-.08.23.04-.07.08-.13.08-.23m.23-3.72c.03.16-.06.2-.08.3-.17.03-.08-.22-.23-.23.03-.1.19-.06.31-.07m0 1.14c-.27.05-.28-.27-.16-.38.27-.06.28.26.16.38m-.23 2.05c.08-.31.03-.31.07-.69.23.02.26.77-.07.69m.15-.99c-.2.02-.22-.53-.08-.61.33.01.25.5.08.61m.53 0c.01-.11.01-.21-.07-.23-.08-.73.13-1.41 0-1.97.25-.16.76-.04 1.13-.08v1.14a.5.5 0 01-.37.08c-.06.28.32.13.37.3.01.85-.05 1.78.16 2.43-.57-.06-.91.11-1.45.08.1-.62-.01-1.44.54-1.6-.02-.14-.26-.05-.31-.15m2.36 1.22c.17-.03.08.21.22.22-.01.2-.28.18-.38.08.04-.11.12-.19.16-.3m.15-.23c-.06.14-.08-.05-.08-.15.06-.14.08.04.08.15m0-1.37c-.13-.07-.17-.24-.15-.45.13.06.16.23.15.45m-.15-1.82c.08-.01.13.01.15.07.18.26.01.69-.08.92-.17-.18-.03-.69-.07-.99m.68 1.59c-.12-.26-.07-.69-.08-1.06 0-.28.28-.28.31-.53-.01-.08-.1-.06-.16-.08.13-.14.71-.09.84 0 .13.54-.36.46-.53.69.01.16.32.03.45.07.03.86-.05 1.5 0 2.2h-.45c-.01.24.23.23.45.23-.05.29.1.36.08.61-.23.15-.72.04-1.06.07-.11-.59.23-1.37.15-2.2m1.67 2.74c.76-.16 1.48-.35 2.43-.31.71.08 1.28.28 1.9.46.11.18-.25.54.15.68v.08c.06.01.15 0 .15.07.45.04.79.17 1.06.38.45.06.54.48 1.14.38-.09.21-.08.53-.07.84.32 1.18.47 2.81.3 4.25-.17.16-.22.44-.3.68-.31.32-.49.79-.84 1.06-.09.24-.25.41-.45.54-.12.21-.21.45-.46.53-.3.16-.58.01-.84-.08-.44.16-.9.31-1.21.61-.82-.1-1.65-.18-2.43-.31-.24-.13-.49-.27-.83-.3-.23-.2-.5-.36-.84-.46-.1-.12-.34-.11-.46-.22-.19-.03-.22-.23-.45-.23-.12-.41-.44-.62-.53-1.06-.23-.33-.31-.81-.46-1.22-.04-1.43.09-2.69.38-3.79.35-.6.78-1.1 1.14-1.67.25.02.36-.09.38-.31.31.05.43-.07.68-.07.26-.08.27-.39.46-.53m12.98 6.22c-.01-2.39-.34-4.79-.3-7.13-.03-.79-.09-1.54-.15-2.28-.11-.3-.12-.7-.16-1.07-.26-.16-.22-.64-.45-.83C20.27.6 19.5.72 18.95.6 18.3.58 17.7.49 17.05.45c-1.93-.1-3.97-.08-5.99-.08-2 0-3.96-.14-5.7-.37h-2.2c-.1 0-.1.09-.23.07-.6.03-1.07.19-1.59.3C1.13.49.92.61.66.68.52.87.14.82.05 1.06c-.18.21.18.45 0 .6v.92c.17.13.03.58.07.83v.99C.11 5.68.26 6.8.2 8.12c.47 2.76.37 6.53.08 9.41.15.58.36 1.11.45 1.75.26.48.34 1.13.68 1.52.51.2 1.24.18 1.9.22.39.1.67.3 1.14.31 2.85-.21 5.5-.15 8.43-.23 2.7.24 5.8.19 8.27-.23.2-.13.13-.53.23-.76-.05-.38.21-.45.23-.76.13-2.39.16-4.78.15-7.21" fill="#231f20"/></svg>