<svg xmlns="http://www.w3.org/2000/svg" width="40.21" height="62.41" viewBox="0 0 40.21 62.41"><path d="M15.17 37.95c-.28.97-.24 2.19.03 3.64.49 2.64 1.69 6.04 2.36 9.67h5.06c.7-3.64 1.95-7.05 2.47-9.68.29-1.45.33-2.66.04-3.62-.27-.9-.89-1.62-2.02-2.3h-6c-1.07.68-1.67 1.39-1.94 2.29m11.83 20H13.21c-1.3 0-2.3.97-2.3 2.23v2.23H29.3v-2.23c0-1.26-1-2.23-2.3-2.23m7.14-55.73H22.41C22.41.98 21.39 0 20.1 0c-1.28 0-2.3.98-2.3 2.22H6.07L0 27.74c.79-.46 1.58-.99 2.63-.99 1.36 0 2.24.82 2.92 1.37.68.56 1.16.85 1.45.85.29 0 .77-.28 1.45-.83.68-.55 1.56-1.36 2.91-1.36s2.24.8 2.92 1.35c.69.55 1.16.84 1.45.84.15 0 .34-.07.58-.21.25-.14.53-.35.88-.63.51-.41 1.13-.97 1.99-1.22.28-.08.59-.13.92-.13 1.35 0 2.24.8 2.92 1.35.69.55 1.16.84 1.46.84.28 0 .76-.29 1.44-.85.69-.55 1.57-1.36 2.93-1.36 1.35 0 2.24.81 2.92 1.37.34.27.63.49.87.63s.43.21.57.21c.29 0 .76-.29 1.44-.85.68-.56 1.57-1.39 2.93-1.39 1.05 0 1.84.54 2.63 1zM23.52 53.49h-6.87c-.65 0-1.15.48-1.15 1.12 0 .63.5 1.11 1.15 1.11h6.9c.66 0 1.15-.48 1.15-1.11 0-.64-.49-1.12-1.15-1.12zM20.1 29.01c-.14 0-.33.07-.58.21-.15.09-.37.26-.56.41v3.73h2.29v-3.73c-.5-.38-.9-.62-1.15-.62"/></svg>