<svg xmlns="http://www.w3.org/2000/svg" width="148.05" height="72.7" viewBox="0 0 148.05 72.7"><style>.st0{fill:#000}</style><path class="st0" d="M87.83 16.35c-.05.04-.09.08-.13.12.07-.31.14-.62.22-.93h.11c-.06.27-.13.54-.2.81m55.33 15.04c-1.48 1.06-3.05 1.95-4.66 2.78.04-1.75-.12-3.46-.59-5.13l.15-1c.37-3 .65-7.12-2.01-9.22-.33-.27-1.24-.04-1.92.27-.15-.15-.32-.29-.49-.41-.09-.25-.16-.49-.23-.74-.04-.12-.17-.19-.36-.21.28-.39.26-.82-.42-1.1-.38-.15-.76-.28-1.15-.41-.06-.07-.12-.09-.17-.06v.01c-.94-.3-1.9-.54-2.86-.71.14-.33.39-.81.55-1 .13-.16.28-.3.43-.44.06-.05.12-.11.19-.16a.32.32 0 01.07-.06c.02-.02.04-.04.08-.07.38-.28.85-.86.22-1.2-.57-.3-1.51-.14-2.01.24-.86.66-1.62 1.38-2.09 2.36-2.01-.17-4.05-.15-6.08-.08.06-.07.11-.15.14-.25.19-.58-.9-.52-1.18-.48l-4.69.6c1.36-3.77 3.08-8.58 1-12.26-1.19-2.11-3.91-2.58-6.1-2.66-2.44-.07-4.9.46-7.04 1.64-4.76 2.62-7.11 7.71-8.21 13.14-.49-.66-2.3-.43-2.64.47-.12.32-.23.64-.33.97-.16.17-.28.38-.34.63-.02.06-.03.12-.04.17-.07 0-.13.01-.2.01.02-.11.04-.21.06-.31.15-.11.25-.23.28-.37.58-2.29 1.16-4.59 1.95-6.82.27-.75-2.51-.4-2.8.43-.43 1.19-.79 2.4-1.12 3.62-.17.08-.36.19-.43.33-.01.03-.03.07-.04.1-.11-.09-.27-.15-.47-.18v-.96c0-.43-2.82-.03-2.82.76v1.57c-.17.07-.33.16-.48.26l-.18.18c-.08.07-.12.15-.12.24-.01.03-.02.05-.03.08-.01.02-.03.05-.05.07-.12.12-.18.33-.03.46.19.16.51.17.74.16.05 0 .1-.01.15-.01v.47c-.23 0-.45 0-.68-.01l-.41-.05c-.02-.38-.67-.45-1.35-.33a.33.33 0 000-.14c-.1-.6-.17-1.2-.23-1.79.24-.08.47-.18.68-.32.16-.1.33-.22.33-.43v-.19c0-.18-.41-.21-.5-.21-.2-.01-.4.01-.59.04-.07-1.3-.08-2.61-.08-3.92 0-.84-2.82-.32-2.82.75 0 1.79 0 3.57.19 5.35-.09-.01-.18 0-.27.01v-1.54c0-1.04-1.3-1.22-2.15-.81.32-.26.49-.62.37-1.03-.4-1.42-.78-2.83-.97-4.29-.19-1.4-3.02-.68-2.83.75.2 1.46.57 2.88.98 4.29.23.83 1.34.89 2.1.51-.22.2-.37.45-.37.76v.63c-.19-.1-.44-.16-.77-.16-1.06 0-1.67.89-1.4 1.48-.16-.03-.33-.06-.49-.08-.38-1.25-.69-2.52-.71-3.83-.02-.95-1.27-1.05-2.11-.68-.01-.05-.02-.11-.05-.16-.39-.81-.57-1.68-.78-2.54-.33-1.35-3.16-.6-2.82.76.15.64.3 1.28.51 1.9-.01 0-.03.01-.05.01-.3.08-.6.21-.86.39-.83.08-1.82.56-1.75 1.21.06.47.13.95.21 1.42-.54.09-1.09.18-1.64.26-.29-.78-.5-1.6-.62-2.44-.13-.92-1.55-.85-2.33-.26-.77-2.06-1.79-4.02-3.12-5.76-2.62-3.44-7.1-4.61-11.24-3.8-1.9.38-3.74 1.19-5.04 2.65-1.21 1.35-1.36 3.09-1.17 4.81.15 1.49.61 4 1.58 5.97-.35-.01-.71.04-.95.14-.28.12-.56.25-.83.39-1.94.03-3.88.02-5.81-.07-4.17-.2-8.3-.86-12.49-.74-.93.02-1.54.72-1.47 1.26-1.04.5-1.73 1.31-2.14 2.29-1.73-1.15-3.48-2.27-5.34-3.22-.68-.35-3.3.71-2.28 1.23 1.84.94 3.56 2.07 5.28 3.21.51.35 1.32.14 1.84-.07.03-.01.09-.03.16-.07-.3 1.44-.15 3.06.25 4.49.03.11.09.2.17.27-.02.34-.03.68-.01 1.02v.16c-.4.19-.71.48-.76.84-.19 1.41-.28 2.82-.31 4.23-.27.2-.46.47-.48.8-.23 3.34.04 6.65.47 9.95.18 2.69.69 5.34 1.17 7.99.06.42.11.84.16 1.25-.26 1.14-.39 2.4-.23 3.49-.88.17-1.73.86-1.24 1.61.77 1.16 1.65 2.02 2.61 2.65-.63-.1-1.42.11-1.87.56-.82.81-1.72 1.53-2.53 2.34-.43.42-.32.93.29 1.07.65.16 1.51-.05 1.99-.53.82-.81 1.72-1.53 2.54-2.34.24-.24.3-.52.2-.73 3.21 1.73 7.23 1.27 11.11.94-.88 1.59-1.54 3.27-2.17 5-.26.72 2.51.37 2.8-.44.61-1.67 1.24-3.34 2.11-4.89 3.74.12 7.48.12 11.21.05.15.18.42.3.75.34 3.27.31 6.49-.1 9.69-.7 4.79-.23 9.57-.53 14.36-.81 7.53-.19 15.06-.35 22.59-.32.1.11.2.21.31.32.28.25.62.34.98.33.06 0 .13.01.2.01.72.04 1.43.09 2.14.15.16.04.34.06.56.05h.01c.78.06 1.56.14 2.34.2.17.22.5.35.79.36 3.81.25 7.62.53 11.43.71.14.23.53.34.82.34 7.06.06 15.27 2.8 21.56-1.74.5-.36.27-.87-.27-.98-.11-.02-.22-.03-.32-.03 0-.02.01-.03.02-.05 1.19-2.77 2.17-5.63 2.94-8.55.37-.2.64-.49.65-.86.05-1.19.19-2.41.37-3.64.17-.88.31-1.77.44-2.66.39-2.17.81-4.37 1.02-6.54 2.28-1.15 4.54-2.34 6.62-3.82 1.57-1.12-.78-1.88-1.83-1.14"/><path class="st0" d="M63.26 12.62c.12.2.56.22.75.22.38 0 .76-.08 1.1-.23.41-.16 1.11-.56.77-1.07-.36-.56-.6-1.19-.97-1.75-.13-.2-.56-.22-.75-.22-.38 0-.76.09-1.11.23-.4.16-1.1.56-.77 1.07.36.56.61 1.19.98 1.75M20.68 10.9c.21.65 1.11.65 1.65.51.47-.13 1.39-.62 1.17-1.26-.21-.63-.43-1.3-.89-1.78-.48-.51-1.33-.42-1.9-.15-.42.19-1.18.83-.7 1.35.38.4.48.77.67 1.33m9.97 2.99c.85 0 3.08-1.28 1.19-1.28-.84 0-3.07 1.28-1.19 1.28m91.91-1.62c.34.07.71.03 1.05-.06.32-.09.7-.23.94-.48.36-.35.73-.73.96-1.17.11-.2.18-.4 0-.59-.19-.2-.51-.25-.76-.25-.38-.01-.76.07-1.11.22-.25.1-.62.29-.76.55-.09.19-.21.35-.35.51 0 .01-.01.02-.02.03l-.03.03c-.06.07-.13.14-.19.2-.16.16-.35.37-.28.62.06.24.33.34.55.39m13.3 5.42c.63-.06 1.39-.25 1.89-.66 1.32-1.11 2.6-2.25 3.62-3.65.29-.39-1.05-.24-1.12-.23-.53.1-1.31.28-1.66.75-.95 1.3-2.16 2.35-3.39 3.37-.5.42.44.44.66.42m10.87 27.08h-4.87c-.61 0-1.47.46-1.55 1.13-.09.74.75.93 1.3.93h4.87c.62 0 1.48-.47 1.56-1.14.09-.74-.76-.92-1.31-.92M57.02 60.78c-.5.08-1.42.3-1.64.83-.54 1.27-.98 2.57-1.37 3.9-.21.73 2.57.33 2.8-.45.38-1.33.83-2.63 1.36-3.9.23-.53-.96-.41-1.15-.38m4.58 2.59c-.35 0-.7.06-1.03.15-.34.09-.67.21-.97.39-.14.08-.34.2-.34.39 0 .11-.01.23-.02.34-.02.11-.06.2-.12.29 0-.01 0-.01.01-.02-.07.09-.11.18.02.26.19.11.5.08.71.06.37-.04.74-.13 1.1-.25.24-.09.61-.21.79-.41.15-.16.24-.29.29-.5.03-.18.05-.35.05-.53-.01-.17-.43-.17-.49-.17m55.05 3.68c-.36-.69-3.05.33-2.83.75.85 1.64 1.94 3.13 2.93 4.68.43.69 3.04-.41 2.82-.76-.98-1.55-2.08-3.03-2.92-4.67m4.09-2.34c-.3-.59-1.07-.56-1.63-.42-.35.1-1.48.6-1.19 1.17.38.78.77 1.56 1.16 2.34.3.59 1.07.57 1.63.42.35-.1 1.48-.6 1.2-1.17l-1.17-2.34M5.66 43.1c-1.48.36-3 .57-4.48.98-.54.14-1.33.64-1.16 1.31.18.68 1.13.71 1.67.57 1.47-.41 2.99-.62 4.48-.98.54-.13 1.34-.65 1.16-1.32-.19-.68-1.13-.69-1.67-.56"/><path d="M43.75 40.1c-.09-2.71-.52-5.39-.48-8.11.03-2.19.39-4.45-.37-6.55l.15-.72c.19-1.05-3.3-.49-3.85.47-.35.28-.53.62-.38.97.04.08.07.17.1.26-.66 3.23-1.58 6.36-2.64 9.5-.41 1.2-.9 2.37-1.31 3.56-.59-1.11-1.18-2.21-1.66-3.41-1.39-3.46-2.64-6.96-4.33-10.3.19-1.54-3.23-1.38-3.9.04-.82 1.71-.72 3.43-.45 5.26.31 2.06.36 4.09.38 6.17.05 4.01.37 8.01.43 12.02-.36.4-.47.89-.1 1.39.17.22.37.39.58.56.91.73 3.53.1 3.53-1.29-.02-4.16-.32-8.31-.43-12.47-.01-.41-.01-.81-.02-1.22.06.14.11.29.17.44.65 1.62 1.32 3.19 2.21 4.69.87 1.49 1.31 3.1 1.82 4.72-.19.22-.31.47-.24.72-.04.18.07.29.26.36.64.55 1.85.28 2.53-.01.29-.12.56-.26.83-.42.35-.22.89-.69.74-1.17-.03-.1-.06-.19-.09-.28.47-1.29.71-2.62.97-3.97.28-1.44.79-2.81 1.31-4.17.05.62.11 1.25.16 1.87.2 2.58.03 5.12.01 7.7-.01.85.05 1.65.22 2.48.06.35.37 1.83.28 1.91-.62.56-.44 1.26.39 1.44.92.21 2.1-.1 2.79-.74 1.21-1.12.64-2.87.37-4.28-.46-2.37.09-5.01.02-7.42m8.44.68c-.08-2-.77-3.89-.78-5.92-.02-2.33.18-4.64-.16-6.95-.11-.73-4.09.1-3.95 1.06.31 2.13.2 4.27.16 6.41-.04 2.06.47 3.93.73 5.96.28 2.07-.08 4.19.15 6.27.11.97.76 2.77.09 3.61-.42.54 1.49.35 1.57.33.78-.14 1.81-.39 2.33-1.05.66-.83.19-2.44.05-3.38-.32-2.08-.11-4.24-.19-6.34m16.48-3.35c-2.09-2.81-5.95-.78-8.64-1.55-1.39-.4-1.41-2.29-1.41-3.43.01-1.44-.11-2.75-.27-4.18-.12-1.06-.03-2.14.75-2.93.14-.15.87-.34.82-.34.35-.07.68-.08 1.07-.1 1.57-.07 4.66.24 4.06 2.51-.27 1.02 3.63.43 3.91-.64 1.23-4.65-7.35-3.75-9.77-3.11-2.23.59-4.69 1.86-4.82 4.44-.06 1.23.27 2.4.33 3.62.06 1.4-.2 2.8.29 4.15 1.09 3.01 5.57 1.59 7.85 1.76 3.88.29 2.72 5.52 2.77 7.96.03 1.3 1.19 3.46.21 4.55-.6.66-2 .7-2.81.77-.83.07-2.23.32-2.77-.46-1-1.43.09-3.84-.12-5.48-.13-.93-4.11-.09-3.96 1.06.35 2.65-1.41 6.2 2.43 6.66 2.46.29 5.24-.17 7.57-.94 1.2-.4 2.32-.95 3.27-1.81 1.04-.95.7-2.37.42-3.58-.68-2.94.74-6.33-1.18-8.93m17.48-.19c-.12-3.81-.7-7.58-.71-11.4-.01-1.98-4-1.31-3.99.35.01 3.64.5 7.23.68 10.86.01.08.01.15.01.22-1.96-.01-3.93.18-5.9.25.2-4.67-.62-9.31-.44-13.98.02-.59-3.91-.09-3.95 1.06-.17 4.52.59 9 .46 13.51-.07 2.16-.25 4.31-.27 6.46 0 1.11.18 2.21.34 3.3.14 1 .48 2.35.18 3.35-.24.77 3.59.29 3.9-.71.55-1.79-.23-4.07-.41-5.89-.18-1.74-.04-3.53.08-5.29 2.05-.13 4.1-.3 6.14-.02.09 1.39.19 2.78.32 4.18.11 1.16.18 2.33.2 3.5.02 1.03.14 2.52-.22 3.5-.78 2.07 3.18 1.9 3.75.36.71-1.88.51-4.23.39-6.22-.15-2.46-.48-4.92-.56-7.39m17.09 4.52c-.95-2.79-2.4-5.23-3.65-7.87 1.01-1.97 2.03-3.94 2.96-5.94.83-1.83 1.46-3.86 3.1-5.14.58-.45.56-.91-.26-.96-.88-.06-2.08.19-2.79.75-1.5 1.17-2.45 2.58-3.23 4.3-.94 2.07-1.91 4.11-2.94 6.13-.07.15-.15.3-.22.45-.5.32-.8.77-.65 1.28-.8 1.58-1.61 3.15-2.52 4.65-.3-5.58-.96-11.16-1.16-16.75-.05-1.28-4.01-.48-3.95 1.06.24 6.93 1.23 13.85 1.29 20.78-.01.01-.03.03-.04.05-.31.31-.2.49.05.6 0 1.77-.06 3.54-.21 5.31-.48.75.46 1.15 1.09 1.15h.1c.75 0 2.65-.36 2.74-1.38.19-2.12.26-4.24.24-6.35 1.6-1.73 2.91-3.66 4.09-5.69.76 1.5 1.49 3 2.01 4.63.86 2.76 2.32 5.31 3.15 8.08.55 1.83 4.5.75 3.96-1.05-.84-2.78-2.23-5.35-3.16-8.09m8.96-4.83c-.1-1.26-.22-2.51-.3-3.78-.16-2.35.11-5.63 2.31-7.06.58-.38 1.69-.32 2.37-.44.98-.18 1.98-.4 2.86.19 1.22.81.92 3.69.92 4.91-.01 2.03.21 4.04.31 6.06-.56.06-1.12.09-1.7.08-2.31-.06-4.58-.42-6.77.04m14.75.15c-.21-.84-1.38-.86-2.29-.78l-.03-1.01c-.13-2.69-.17-5.43-.4-8.11-.21-2.48-1.6-3.37-4.01-3.27-2.44.09-5.27.53-7.55 1.41-2.63 1.03-4.09 2.96-4.6 5.74-.55 3.04.24 6.27.38 9.33.15 3.53.06 7.07.06 10.61 0 .58 3.95.03 3.95-1.06.01-2.8.05-5.6 0-8.4-.01-.83-.05-1.65-.1-2.47 1.38-.6 3.72.02 5.1.15 1.11.1 2.18-.17 3.27-.3.02 2.34.11 4.68.2 7.01.05 1.19.48 3.56-.35 4.55-.44.52 1.49.35 1.56.34.81-.15 1.78-.41 2.33-1.05.96-1.13.46-3.83.4-5.18-.07-1.93-.1-3.86-.14-5.79 1.17-.15 2.44-.86 2.22-1.72M48.77 25.17c.52-.05 1.05-.23 1.49-.53.08-.07.17-.14.26-.22.52-.33.97-.83.73-1.37-.51-1.11-.43-2.25-.42-3.44.01-.97-.97-1.26-1.8-1.19-.73.06-2.19.59-2.19 1.53-.01 1.01-.07 2.04.11 3.02-.05.12-.08.25-.11.36-.05.22.02.43.15.6v.13c0 .12.01.23.01.34.08.24.22.41.44.54.39.23.88.27 1.33.23" fill="#fff"/></svg>