<svg xmlns="http://www.w3.org/2000/svg" width="85.58" height="35.03" viewBox="0 0 85.58 35.03"><path d="M4.18 26.3c-.02-3.48-.27-6.94-.36-10.41-.01-.34-.02-.68-.02-1.02l.15.36c.54 1.35 1.1 2.66 1.83 3.92.74 1.24 1.1 2.58 1.52 3.94-.15.18-.25.39-.19.6-.04.15.06.24.21.3.54.46 1.55.23 2.11-.01.25-.1.48-.22.7-.35.29-.18.74-.57.61-.98-.02-.08-.05-.16-.07-.23.4-1.07.6-2.18.81-3.31.23-1.21.66-2.35 1.1-3.49l.12 1.57c.18 2.15.03 4.27.01 6.42-.01.71.05 1.38.19 2.08.05.28.31 1.52.23 1.58-.51.48-.36 1.06.33 1.21.77.17 1.75-.08 2.33-.62 1.01-.93.53-2.4.3-3.57-.38-1.97.08-4.18.02-6.19-.07-2.26-.43-4.5-.4-6.77.03-1.83.33-3.71-.3-5.47l.12-.6c.16-.88-2.76-.41-3.22.39-.29.24-.43.52-.31.81.03.07.06.14.08.22-.55 2.69-1.32 5.31-2.2 7.93-.34 1-.75 1.97-1.1 2.97-.49-.93-.98-1.85-1.38-2.84-1.16-2.89-2.2-5.82-3.61-8.6.16-1.29-2.7-1.15-3.26.03-.67 1.42-.58 2.86-.37 4.39.25 1.72.3 3.41.32 5.15.04 3.34.3 6.69.35 10.04-.3.33-.39.74-.08 1.15.14.19.31.33.48.46.76.62 2.95.1 2.95-1.06M22.37 7.92c-.09-.61-3.41.09-3.3.89.26 1.77.17 3.56.14 5.35-.03 1.72.39 3.28.61 4.97.23 1.73-.07 3.5.13 5.24.09.81.63 2.31.07 3.01-.35.45 1.24.29 1.31.28.65-.12 1.51-.33 1.94-.88.55-.69.17-2.04.05-2.82-.27-1.74-.1-3.54-.17-5.29-.06-1.68-.64-3.25-.65-4.95-.01-1.94.16-3.86-.13-5.8m3.12 6.65c.91 2.51 4.65 1.33 6.56 1.47 3.23.24 2.27 4.61 2.31 6.64.02 1.09.99 2.89.18 3.8-.5.55-1.67.59-2.35.65-.69.05-1.86.26-2.32-.39-.83-1.2.08-3.2-.1-4.57-.1-.78-3.42-.08-3.3.88.29 2.21-1.17 5.18 2.03 5.56 2.06.24 4.37-.14 6.31-.79 1.01-.33 1.95-.79 2.74-1.51.87-.79.58-1.97.35-2.98-.57-2.46.61-5.29-.99-7.46-1.74-2.34-4.96-.65-7.21-1.29-1.16-.33-1.18-1.91-1.17-2.86 0-1.21-.1-2.31-.23-3.5-.1-.88-.02-1.78.62-2.44.12-.12.73-.29.68-.29.3-.05.58-.06.91-.07 1.3-.06 3.88.19 3.38 2.09-.22.85 3.03.36 3.27-.54C38.18 3.1 31.02 3.84 29 4.38c-1.87.49-3.92 1.55-4.03 3.7-.05 1.03.23 2.01.28 3.02.05 1.17-.17 2.34.24 3.47m14.46 1.87c-.05 1.8-.21 3.59-.22 5.39-.01.92.15 1.84.28 2.75.12.84.41 1.97.15 2.8-.2.64 3 .24 3.25-.59.46-1.5-.18-3.4-.34-4.92-.14-1.45-.03-2.94.08-4.42 1.7-.11 3.41-.25 5.11-.01.08 1.17.17 2.32.28 3.49.09.97.15 1.94.16 2.92.02.86.12 2.1-.18 2.92-.65 1.73 2.65 1.59 3.13.31.59-1.58.43-3.54.33-5.2-.13-2.06-.41-4.11-.47-6.17-.11-3.18-.58-6.32-.6-9.51 0-1.66-3.34-1.1-3.33.29.01 3.04.42 6.03.57 9.07.01.06.01.12.01.18-1.64-.02-3.28.15-4.93.21.17-3.91-.51-7.77-.36-11.67.02-.5-3.26-.08-3.3.88-.15 3.77.49 7.51.38 11.28m14.08 5.37c-.25.26-.16.41.04.51.01 1.47-.05 2.95-.17 4.42-.4.63.39.96.91.96h.08c.62 0 2.21-.29 2.29-1.15.16-1.77.21-3.53.2-5.3 1.33-1.44 2.43-3.05 3.41-4.75.64 1.25 1.25 2.51 1.68 3.87.72 2.31 1.94 4.43 2.63 6.75.46 1.52 3.76.62 3.3-.89-.7-2.32-1.85-4.46-2.64-6.75-.79-2.32-1.99-4.36-3.04-6.57.84-1.64 1.7-3.28 2.47-4.96.7-1.52 1.22-3.21 2.59-4.29.49-.37.47-.75-.21-.8-.74-.05-1.74.16-2.34.63-1.25.97-2.04 2.16-2.69 3.59-.79 1.73-1.6 3.42-2.46 5.12-.06.12-.12.25-.18.37-.42.27-.66.64-.54 1.07-.67 1.31-1.35 2.62-2.11 3.88-.25-4.66-.8-9.31-.97-13.98-.03-1.07-3.34-.4-3.29.88.2 5.79 1.02 11.56 1.08 17.34-.01.02-.03.04-.04.05m24.87-6.39c-1.93-.05-3.83-.35-5.65.03-.09-1.05-.18-2.1-.25-3.15-.14-1.96.09-4.7 1.92-5.9.5-.32 1.42-.26 1.99-.37.82-.14 1.64-.32 2.38.16 1.02.68.77 3.08.77 4.11-.01 1.69.17 3.37.26 5.05-.47.05-.94.08-1.42.07m6.66.16c-.17-.7-1.15-.72-1.91-.65l-.03-.85c-.11-2.24-.14-4.53-.33-6.76-.17-2.07-1.33-2.81-3.34-2.74-2.04.08-4.41.45-6.31 1.19-2.19.85-3.42 2.47-3.84 4.78-.46 2.54.2 5.24.32 7.79.13 2.95.05 5.91.05 8.86 0 .48 3.3.03 3.3-.89 0-2.33.03-4.67 0-7.01-.01-.69-.05-1.37-.09-2.06 1.16-.5 3.11.01 4.26.12.93.09 1.82-.14 2.73-.24.02 1.94.09 3.9.17 5.85.04 1 .4 2.97-.3 3.8-.37.43 1.25.29 1.31.28.67-.13 1.48-.34 1.94-.88.8-.94.39-3.19.34-4.32-.07-1.61-.09-3.22-.12-4.83.97-.13 2.04-.73 1.85-1.44M18.7 4.1c-.05.18.01.36.11.5 0 .04.01.07.01.11 0 .1.01.19.01.28.06.2.18.35.36.45.33.2.74.23 1.11.2.44-.04.88-.19 1.25-.44.07-.06.14-.12.21-.19.44-.28.82-.69.61-1.14-.42-.93-.36-1.88-.35-2.88.01-.8-.81-1.04-1.5-.99-.61.06-1.82.49-1.83 1.28-.01.84-.06 1.7.09 2.53-.04.09-.06.19-.08.29m61.57 29.18c-1.56-.58-3.28-.61-4.85-.78-1.6-.17-3.24-.41-4.88-.57-1.64.06-3.31.03-4.97.13l-4.88.27c-6.49.29-13 .25-19.52.11-6.52-.12-13.04-.48-19.63-.45-3.29 0-6.57.09-9.86.25-1.63.28-3.24.5-4.91.91-1.61.4-3.14.91-4.79 1.05 1.62.36 3.34.29 4.96.29 1.58.01 3.24.15 4.87.23 3.23-.17 6.49-.24 9.74-.25 6.48-.03 13.01.33 19.56.45 6.55.14 13.12.18 19.68-.11l4.91-.27c1.6-.07 3.2-.13 4.83-.07 1.63-.15 3.25-.33 4.92-.53 1.66-.24 3.22-.63 4.85-.51l.08.01v-.06c.03-.18-.04-.32-.04-.48-.03.13-.04.27-.07.38"/></svg>