<svg xmlns="http://www.w3.org/2000/svg" width="112.38" height="46.08" viewBox="0 0 112.38 46.08"><path d="M110.22 41.88c4.4.86.85-35.86.15-38.32-1.96-6.55-26.68-2.14-32.18-1.71-12.72.98-25.19-.96-37.61-.38-6.21.29-34.85-1.8-37.52 1.99-5.04 7.21-2.65 25.8-1.28 35.07-4.03.78 2.31 4.16 3.14 4.9 6.31 2.19 16.36-.22 23.01.4 15.43 1.47 31.79-2.2 47.27-.96 4.5 1.15 9.61 1.02 14.23 1.24 3.41 5.57 19.66-2.46 20.79-2.23-.1-.02.51.1 0 0"/><path d="M26.05 24.4c-.08-2.54-.48-5.07-.45-7.62.03-2.06.37-4.18-.34-6.16.05-.23.09-.45.13-.68.19-.99-3.1-.46-3.62.44-.32.27-.49.59-.35.91.03.08.07.16.1.25-.63 3.04-1.49 5.98-2.49 8.93-.38 1.13-.84 2.23-1.23 3.35-.56-1.05-1.11-2.08-1.56-3.2-1.31-3.26-2.48-6.55-4.07-9.69.18-1.45-3.04-1.3-3.68.03-.76 1.61-.66 3.23-.41 4.95.28 1.94.33 3.84.36 5.8.04 3.77.34 7.54.39 11.31-.33.37-.43.84-.08 1.31.15.2.34.36.54.52.86.68 3.32.1 3.32-1.21-.02-3.91-.3-7.82-.4-11.73-.01-.38-.02-.76-.02-1.15.05.14.1.28.16.41.61 1.53 1.24 3.01 2.07 4.42.82 1.4 1.24 2.91 1.71 4.44-.18.2-.28.44-.22.67-.04.17.07.28.24.34.61.52 1.75.26 2.38 0 .27-.12.53-.25.79-.41.32-.2.83-.64.69-1.1a7.71 7.71 0 01-.09-.26c.45-1.2.68-2.46.92-3.73.26-1.35.74-2.64 1.23-3.92l.15 1.76c.19 2.42.03 4.81.01 7.24-.01.8.05 1.55.2 2.33.07.33.35 1.72.27 1.79-.58.54-.41 1.2.36 1.37.87.19 1.98-.1 2.63-.71 1.14-1.05.6-2.7.35-4.02-.44-2.22.08-4.71.01-6.98m7.94.65c-.07-1.89-.72-3.67-.73-5.58-.01-2.18.17-4.35-.15-6.53-.1-.69-3.85.09-3.72 1 .3 2 .19 4.01.15 6.03-.03 1.94.45 3.69.7 5.6.25 1.95-.08 3.94.14 5.9.1.91.71 2.6.08 3.39-.4.51 1.4.33 1.48.31.73-.13 1.7-.37 2.18-.98.62-.79.19-2.3.05-3.19-.3-1.95-.11-3.98-.18-5.95m15.5-3.16c-1.96-2.64-5.59-.73-8.13-1.46-1.31-.37-1.32-2.15-1.32-3.22.01-1.35-.11-2.59-.26-3.93-.11-1-.02-2.02.71-2.76.14-.14.82-.32.77-.32.33-.06.64-.07 1.01-.09 1.47-.06 4.38.22 3.82 2.36-.26.96 3.41.41 3.68-.61 1.15-4.36-6.92-3.52-9.2-2.92-2.09.56-4.41 1.75-4.53 4.18-.05 1.15.26 2.25.31 3.4.06 1.32-.19 2.63.28 3.91 1.02 2.83 5.23 1.49 7.38 1.65 3.65.27 2.56 5.19 2.6 7.48.03 1.23 1.13 3.26.2 4.28-.56.63-1.88.67-2.64.73-.78.06-2.09.3-2.61-.44-.94-1.34.09-3.6-.11-5.14-.12-.88-3.86-.1-3.72.99.33 2.49-1.33 5.83 2.28 6.26 2.32.27 4.93-.15 7.12-.88 1.13-.38 2.19-.9 3.07-1.7.99-.9.66-2.23.4-3.37-.64-2.77.69-5.96-1.11-8.4m16.44-.17c-.12-3.59-.65-7.13-.67-10.72-.01-1.87-3.76-1.24-3.75.32.01 3.43.47 6.8.64 10.22.01.07.01.14.01.21-1.85-.02-3.7.17-5.55.23.19-4.4-.58-8.76-.41-13.15.02-.55-3.68-.09-3.72 1-.16 4.24.56 8.46.43 12.7-.06 2.03-.23 4.05-.25 6.08 0 1.04.17 2.07.32 3.1.13.94.46 2.21.17 3.15-.22.73 3.38.27 3.66-.66.52-1.69-.21-3.84-.38-5.54-.17-1.64-.04-3.32.08-4.99 1.92-.12 3.85-.28 5.77-.01.08 1.31.18 2.62.3 3.93.1 1.1.17 2.19.19 3.3.02.96.14 2.36-.21 3.28-.73 1.95 2.99 1.79 3.53.34.67-1.77.48-3.98.37-5.84-.15-2.33-.46-4.63-.53-6.95M82 25.96c-.89-2.61-2.25-4.91-3.43-7.4.95-1.85 1.91-3.7 2.78-5.58.79-1.72 1.37-3.63 2.92-4.84.54-.42.52-.85-.24-.9-.83-.06-1.96.18-2.63.7-1.41 1.1-2.3 2.44-3.04 4.05-.88 1.95-1.8 3.86-2.76 5.77l-.21.42c-.47.3-.75.72-.61 1.2-.75 1.49-1.52 2.96-2.37 4.38-.29-5.25-.91-10.5-1.1-15.76-.04-1.2-3.76-.45-3.71 1 .23 6.52 1.16 13.02 1.22 19.54-.02.01-.03.03-.05.04-.28.3-.17.47.06.58 0 1.66-.06 3.32-.2 4.98-.45.71.43 1.08 1.02 1.08h.1c.7 0 2.49-.33 2.58-1.29.18-1.99.23-3.98.22-5.97 1.5-1.63 2.74-3.45 3.85-5.35.71 1.41 1.4 2.82 1.88 4.35.82 2.6 2.18 4.99 2.97 7.6.52 1.72 4.23.71 3.72-.99-.79-2.61-2.09-5.03-2.97-7.61m8.43-4.54c-.1-1.18-.21-2.36-.29-3.55-.15-2.21.11-5.3 2.17-6.64.56-.36 1.59-.3 2.24-.42.92-.16 1.86-.37 2.68.18 1.15.76.87 3.47.87 4.62-.01 1.91.19 3.8.29 5.7-.52.05-1.05.08-1.6.07-2.17-.05-4.31-.39-6.36.04m13.87.14c-.2-.79-1.3-.8-2.15-.73-.02-.31-.02-.63-.04-.95-.12-2.53-.16-5.11-.37-7.62-.2-2.34-1.5-3.17-3.77-3.08-2.29.08-4.96.5-7.1 1.33-2.47.96-3.85 2.78-4.33 5.39-.52 2.86.23 5.9.36 8.77.14 3.33.06 6.66.06 9.98 0 .55 3.71.03 3.71-.99.01-2.64.04-5.27 0-7.9-.01-.78-.05-1.55-.09-2.32 1.3-.56 3.5.01 4.79.13 1.05.1 2.06-.15 3.08-.27.02 2.19.1 4.4.19 6.59.05 1.12.45 3.35-.34 4.28-.41.49 1.41.32 1.48.31.75-.14 1.67-.38 2.18-.99.91-1.06.44-3.59.39-4.86-.08-1.82-.1-3.63-.14-5.44 1.1-.15 2.3-.82 2.09-1.63m-73.53-11.2c.5-.04 1-.21 1.4-.49.09-.07.17-.14.25-.21.49-.32.92-.78.69-1.29-.48-1.05-.4-2.12-.4-3.24.01-.91-.91-1.18-1.69-1.11-.68.06-2.05.55-2.06 1.44-.01.94-.07 1.91.11 2.84-.05.11-.08.23-.1.34-.06.2.01.39.13.55v.13c.01.11.01.21.02.32.07.22.2.39.4.5.37.22.84.27 1.25.22" fill="#fff"/></svg>