<svg xmlns="http://www.w3.org/2000/svg" width="66" height="100.8" viewBox="0 0 66 100.8"><path d="M56.33 9.22C43.44-3.07 22.56-3.07 9.66 9.22c-12.88 12.3-12.88 32.25 0 44.55 0 0 23.32 21.83 23.32 47.03 0-25.2 23.34-47.03 23.34-47.03 12.9-12.3 12.9-32.25.01-44.55" fill="#fff"/><path d="M47.03 45.52c-.63-3.28.13-6.95.03-10.29-.12-3.75-.71-7.48-.67-11.24.04-3.05.55-6.18-.5-9.09.07-.33.13-.66.2-1 .27-1.46-4.58-.69-5.34.65-.48.39-.73.86-.53 1.34.06.12.1.24.15.37-.92 4.48-2.2 8.82-3.67 13.17-.56 1.66-1.25 3.29-1.82 4.95-.81-1.55-1.64-3.08-2.3-4.73-1.92-4.81-3.65-9.66-6-14.29.27-2.14-4.48-1.91-5.42.05-1.13 2.37-.99 4.76-.61 7.3.42 2.85.49 5.66.52 8.55.07 5.57.51 11.12.59 16.68-.5.55-.65 1.24-.13 1.93.23.3.51.53.8.77 1.27 1.01 4.9.15 4.89-1.78-.02-5.77-.43-11.53-.58-17.3-.02-.57-.03-1.13-.04-1.7.08.21.16.41.24.61.9 2.25 1.84 4.43 3.06 6.52 1.21 2.06 1.82 4.28 2.52 6.54-.26.31-.42.65-.32.99-.06.25.1.41.35.51.89.76 2.58.38 3.51-.01.4-.17.79-.37 1.16-.6.48-.29 1.23-.95 1.02-1.62l-.12-.39c.66-1.77.99-3.62 1.35-5.5.38-2 1.09-3.89 1.81-5.78.07.86.15 1.73.22 2.59.28 3.58.05 7.1.01 10.68-.01 1.18.07 2.28.31 3.44.09.48.51 2.53.39 2.64-.86.79-.61 1.76.54 2.02 1.28.28 2.91-.15 3.88-1.04 1.67-1.55.88-3.99.5-5.94" fill="#6bc6b3"/></svg>