<svg xmlns="http://www.w3.org/2000/svg" width="457.62" height="349.49" viewBox="0 0 457.62 349.49"><path d="M440.7 82.49s-4.18-31.86-17.21-45.81c-16.51-18.37-34.88-18.49-43.36-19.53-60.58-4.65-151.38-4.65-151.38-4.65h-.23s-90.81 0-151.38 4.65c-8.49 1.04-26.86 1.16-43.37 19.53-12.9 14.07-17.21 45.81-17.21 45.81s-4.06 37.32-4.06 74.64v35c0 37.32 4.3 74.64 4.3 74.64s4.18 31.86 17.2 45.81c16.51 18.37 38.02 17.79 47.67 19.76 34.65 3.49 147.08 4.65 147.08 4.65s90.92-.11 151.49-4.76c8.49-1.05 26.86-1.17 43.37-19.54 12.91-13.95 17.21-45.81 17.21-45.81s4.3-37.32 4.3-74.64v-34.99c-.12-37.44-4.42-74.76-4.42-74.76" fill="#63d1bb"/><path d="M440.7 82.49s-4.18-31.86-17.21-45.81c-16.51-18.37-34.88-18.49-43.36-19.53-60.58-4.65-151.38-4.65-151.38-4.65h-.23s-90.81 0-151.38 4.65c-8.49 1.04-26.86 1.16-43.37 19.53-12.9 14.07-17.21 45.81-17.21 45.81s-4.06 37.32-4.06 74.64v35c0 37.32 4.3 74.64 4.3 74.64s4.18 31.86 17.2 45.81c16.51 18.37 38.02 17.79 47.67 19.76 34.65 3.49 147.08 4.65 147.08 4.65s90.92-.11 151.49-4.76c8.49-1.05 26.86-1.17 43.37-19.54 12.91-13.95 17.21-45.81 17.21-45.81s4.3-37.32 4.3-74.64v-34.99c-.12-37.44-4.42-74.76-4.42-74.76z" stroke="#fff" fill="none" stroke-width="25"/><path d="M174.69 93.53v162.31l135.21-81.15z" fill="#fff"/></svg>