<svg xmlns="http://www.w3.org/2000/svg" width="1150" height="34" viewBox="0 0 1150 34"><path d="M1121.25 0c-14.38 0-14.38 14-28.75 14-14.38 0-14.38-14-28.75-14s-14.37 14-28.75 14c-14.37 0-14.37-14-28.75-14-14.37 0-14.37 14-28.75 14-14.37 0-14.37-14-28.74-14-14.38 0-14.38 14-28.75 14-14.38 0-14.38-14-28.75-14-14.38 0-14.38 14-28.75 14-14.38 0-14.38-14-28.75-14s-14.37 14-28.74 14c-14.38 0-14.38-14-28.75-14-14.38 0-14.38 14-28.75 14S733.15 0 718.77 0c-14.37 0-14.37 14-28.74 14-14.38 0-14.38-14-28.75-14s-14.37 14-28.75 14c-14.37 0-14.37-14-28.75-14-14.37 0-14.37 14-28.75 14-14.37 0-14.37-14-28.74-14-14.38 0-14.38 14-28.75 14-14.38 0-14.38-14-28.75-14s-14.37 14-28.75 14-14.38-14-28.75-14c-14.38 0-14.38 14-28.75 14-14.38 0-14.38-14-28.75-14-14.38 0-14.38 14-28.75 14-14.38 0-14.38-14-28.75-14-14.38 0-14.38 14-28.76 14-14.37 0-14.37-14-28.75-14-14.37 0-14.37 14-28.75 14-14.37 0-14.37-14-28.75-14-14.37 0-14.37 14-28.75 14-14.37 0-14.37-14-28.75-14s-14.38 14-28.76 14c-14.37 0-14.37-14-28.75-14S71.89 14 57.51 14 43.13 0 28.75 0C14.38 0 14.38 14 0 14v20h1150V14c-14.38 0-14.38-14-28.75-14" fill="#fff"/></svg>