<svg xmlns="http://www.w3.org/2000/svg" width="1150" height="23" viewBox="0 0 1150 23"><path d="M1150 23c-9.02 0-13.73-4.59-17.52-8.28-3.41-3.32-5.88-5.72-11.23-5.72-5.36 0-7.83 2.4-11.24 5.72-3.79 3.69-8.49 8.28-17.51 8.28-9.02 0-13.73-4.59-17.52-8.28-3.41-3.32-5.87-5.72-11.23-5.72s-7.82 2.4-11.23 5.72c-3.79 3.69-8.5 8.28-17.52 8.28s-13.73-4.59-17.51-8.28c-3.41-3.32-5.88-5.72-11.24-5.72s-7.82 2.4-11.23 5.72c-3.79 3.69-8.5 8.28-17.52 8.28-9.01 0-13.72-4.59-17.51-8.28C956.58 11.4 954.11 9 948.76 9c-5.36 0-7.83 2.4-11.24 5.72-3.79 3.69-8.5 8.28-17.51 8.28-9.02 0-13.73-4.59-17.52-8.28C899.08 11.4 896.61 9 891.26 9c-5.36 0-7.82 2.4-11.24 5.72-3.78 3.69-8.49 8.28-17.51 8.28-9.02 0-13.73-4.59-17.52-8.28C841.58 11.4 839.12 9 833.76 9s-7.82 2.39-11.23 5.72c-3.79 3.69-8.5 8.28-17.51 8.28-9.02 0-13.73-4.59-17.52-8.28C784.09 11.4 781.62 9 776.27 9c-5.36 0-7.83 2.4-11.24 5.72-3.78 3.69-8.49 8.28-17.51 8.28-9.01 0-13.73-4.59-17.51-8.28C726.6 11.4 724.13 9 718.77 9c-5.35 0-7.82 2.4-11.23 5.72-3.78 3.69-8.5 8.28-17.51 8.28-9.02 0-13.73-4.59-17.51-8.28C669.1 11.4 666.64 9 661.28 9s-7.82 2.4-11.23 5.72c-3.79 3.69-8.5 8.28-17.52 8.28-9.01 0-13.72-4.59-17.51-8.28C611.61 11.4 609.14 9 603.78 9c-5.35 0-7.82 2.4-11.23 5.72-3.79 3.69-8.5 8.28-17.52 8.28-9.01 0-13.72-4.59-17.51-8.28C554.11 11.4 551.65 9 546.29 9s-7.83 2.4-11.24 5.72c-3.78 3.69-8.49 8.28-17.51 8.28-9.02 0-13.73-4.59-17.51-8.28C496.61 11.4 494.15 9 488.79 9s-7.82 2.4-11.23 5.72c-3.79 3.69-8.5 8.28-17.52 8.28s-13.73-4.59-17.51-8.28C439.11 11.4 436.65 9 431.29 9s-7.83 2.4-11.24 5.72c-3.78 3.69-8.5 8.28-17.51 8.28-9.02 0-13.73-4.59-17.52-8.28C381.61 11.4 379.15 9 373.79 9s-7.83 2.4-11.24 5.72c-3.78 3.69-8.5 8.28-17.51 8.28-9.02 0-13.73-4.59-17.52-8.28C324.11 11.4 321.64 9 316.29 9c-5.36 0-7.83 2.4-11.24 5.72-3.79 3.69-8.5 8.28-17.52 8.28-9.01 0-13.73-4.59-17.51-8.28C266.61 11.4 264.14 9 258.78 9s-7.82 2.4-11.23 5.72c-3.79 3.69-8.5 8.28-17.52 8.28-9.01 0-13.72-4.59-17.51-8.28C209.11 11.4 206.64 9 201.28 9c-5.35 0-7.82 2.4-11.23 5.72-3.79 3.69-8.5 8.28-17.52 8.28-9.01 0-13.73-4.59-17.51-8.28C151.6 11.4 149.14 9 143.78 9s-7.83 2.4-11.24 5.72c-3.78 3.69-8.5 8.28-17.52 8.28-9.01 0-13.73-4.59-17.51-8.28C94.09 11.4 91.63 9 86.27 9s-7.83 2.4-11.24 5.72C71.24 18.41 66.53 23 57.51 23 48.5 23 43.78 18.41 40 14.72 36.58 11.4 34.11 9 28.75 9s-7.82 2.4-11.24 5.72C13.73 18.41 9.01 23 0 23v-9c5.36 0 7.82-2.41 11.24-5.73C15.02 4.58 19.74 0 28.75 0c9.02 0 13.74 4.58 17.52 8.27C49.69 11.59 52.15 14 57.51 14s7.83-2.41 11.24-5.73C72.54 4.58 77.25 0 86.27 0S100 4.58 103.79 8.27c3.41 3.32 5.87 5.73 11.23 5.73s7.83-2.41 11.24-5.73c3.79-3.69 8.5-8.27 17.52-8.27s13.73 4.58 17.52 8.27c3.41 3.32 5.87 5.73 11.23 5.73s7.83-2.41 11.24-5.73c3.78-3.69 8.5-8.27 17.51-8.27 9.02 0 13.73 4.58 17.52 8.27 3.41 3.32 5.88 5.73 11.23 5.73 5.36 0 7.83-2.41 11.24-5.73 3.78-3.69 8.5-8.27 17.51-8.27 9.02 0 13.73 4.58 17.52 8.27 3.41 3.32 5.87 5.73 11.23 5.73s7.83-2.41 11.24-5.73c3.79-3.69 8.5-8.27 17.52-8.27 9.01 0 13.73 4.58 17.51 8.27 3.41 3.32 5.88 5.73 11.24 5.73s7.82-2.41 11.23-5.73c3.79-3.69 8.5-8.27 17.52-8.27 9.01 0 13.73 4.58 17.51 8.27 3.41 3.32 5.88 5.73 11.24 5.73s7.82-2.41 11.23-5.73c3.79-3.69 8.5-8.27 17.52-8.27s13.73 4.58 17.51 8.27c3.42 3.32 5.88 5.73 11.24 5.73s7.82-2.41 11.24-5.73C475.06 4.58 479.77 0 488.79 0c9.02 0 13.73 4.58 17.51 8.27 3.42 3.32 5.88 5.73 11.24 5.73s7.82-2.41 11.23-5.73c3.79-3.69 8.5-8.27 17.52-8.27 9.01 0 13.73 4.58 17.51 8.27 3.41 3.32 5.88 5.73 11.23 5.73 5.36 0 7.83-2.41 11.24-5.73 3.79-3.69 8.5-8.27 17.51-8.27 9.02 0 13.73 4.58 17.52 8.27 3.41 3.32 5.88 5.73 11.23 5.73 5.36 0 7.83-2.41 11.24-5.73 3.78-3.69 8.5-8.27 17.51-8.27 9.02 0 13.73 4.58 17.51 8.27 3.42 3.33 5.88 5.73 11.24 5.73s7.82-2.41 11.23-5.73c3.79-3.69 8.5-8.27 17.51-8.27 9.02 0 13.73 4.58 17.52 8.27 3.41 3.32 5.87 5.73 11.23 5.73s7.82-2.41 11.23-5.73c3.79-3.69 8.5-8.27 17.52-8.27 9.01 0 13.72 4.58 17.51 8.27 3.41 3.32 5.88 5.73 11.24 5.73 5.35 0 7.82-2.41 11.23-5.73C820.03 4.58 824.74 0 833.76 0c9.02 0 13.73 4.58 17.51 8.27 3.42 3.32 5.88 5.73 11.24 5.73s7.82-2.41 11.23-5.73c3.79-3.69 8.5-8.27 17.52-8.27 9.01 0 13.72 4.58 17.51 8.27 3.41 3.32 5.88 5.73 11.24 5.73 5.35 0 7.82-2.41 11.23-5.73 3.79-3.69 8.5-8.27 17.52-8.27 9.01 0 13.72 4.58 17.51 8.27 3.41 3.32 5.88 5.73 11.23 5.73 5.36 0 7.83-2.41 11.24-5.73 3.78-3.69 8.49-8.27 17.51-8.27 9.02 0 13.73 4.58 17.52 8.27 3.41 3.32 5.87 5.73 11.23 5.73s7.82-2.41 11.24-5.73c3.78-3.69 8.49-8.27 17.51-8.27 9.02 0 13.73 4.58 17.51 8.27 3.42 3.32 5.88 5.73 11.24 5.73 5.35 0 7.82-2.41 11.23-5.73 3.79-3.69 8.5-8.27 17.52-8.27 9.01 0 13.72 4.58 17.51 8.27 3.41 3.32 5.88 5.73 11.24 5.73z" fill="#ededee"/></svg>