<svg xmlns="http://www.w3.org/2000/svg" width="201.99" height="59.48" viewBox="0 0 201.99 59.48"><style>.st1{fill:#f06351}.st4{fill:#111}.st3{fill:#000}.st0{fill:#fdc305}</style><path class="st0" d="M58.4 27.78c-.43.43-1.35.72-1.49-.58-.15-1.3-.2-2.22-.2-2.22s-1.92-3.42-2.65-3.47c-.72-.05-5.83 3.47-7.18 4.96-1.16 1.29-1.39 1.21-1.39 3.47 0 1.72.22 8.17.09 13.11 0 0-2.17.58-8.14 2.17-5.98 1.59-7.81 1.78-7.81 1.78l-1.01-5.83h-.04v-.01h-.04c-.01 0-.03 0-.05-.01l-2.57-13.18s-3.81-1.45-5.2-1.83c-1.4-.39-2.27-.68-4.05.62-1.78 1.31-1.74 3.86-1.74 3.86s.44.96.49 1.44c.04.49-1.21.44-2.03.44-.82 0-.91-1.45-.29-3.13.63-1.69 1.93-3.71 1.93-3.71s1.2-2.27 2.07-2.9c0 0 .15-.33 1.26-.24 1.1.1 7.27.44 7.27.44l.06-2.28c6.69-.91 13.48-1.37 20.24-1.33-.01.6-.03 1.21-.06 1.82 0 0 4.39-2.02 8.15-1.97 0 0 .43-.05.77.38.33.44 2.41 2.99 2.65 3.38.24.38 1.2 1.73 1.83 3.03 0 0-.44 1.35-.87 1.79m1.48-3.79c-5.45-13.05-20.45-19.21-33.5-13.76-13.05 5.45-19.21 20.45-13.76 33.5 3.59 8.59 11.31 14.19 19.88 15.47-.58-2.09-1.16-4.4-1.69-6.86 1.5.99 3.09 1.81 4.77 2.56-.01 0-.01 0-.02.01 0 0 .12 2.15.28 4.56 1.77.03 3.56-.12 5.35-.48-.05-.15-.05-.4.01-.76.28-1.86 1.09-5.23 1.25-7.41a15.52 15.52 0 002.9-3.71c-.01.01-.01.03-.01.04-.02.14-.03.29-.05.43-.56 4.27-1.71 8.82-2.41 10.07-.24.44-.54.86-.83 1.16 1.37-.32 2.73-.76 4.07-1.32 13.05-5.45 19.21-20.45 13.76-33.5"/><path class="st1" d="M56.45 21.67c.47.6.89 1.13.99 1.29.24.38 1.2 1.73 1.83 3.03 0 0-.43 1.35-.87 1.79-.43.43-1.35.72-1.49-.58-.15-1.3-.2-2.22-.2-2.22s-1.92-3.42-2.65-3.47c-.72-.05-5.83 3.47-7.18 4.96-1.16 1.29-1.39 1.21-1.39 3.47 0 1.51.17 6.65.13 11.23 1.81.21 4.46.71 5.26 1.88 0 0-.29-7.18 7.81-3.42 0 0 .29-9.78 11.47-7.28 0 0-5.67-6.96-13.71-10.68m-10.52-2.32c.15-8.52-1.41-16.54-1.41-16.54s-.14-1.3-.87-.24c-.72 1.06-1.2 3.95-1.2 3.95-7.47-.43-12.82.34-12.82.34-.82-2.75-2.22-3.95-2.89-3.66-.67.29-.72 3.32-.72 3.32l-.33 14.16c6.69-.91 13.49-1.37 20.24-1.33"/><path d="M45.35 47.11c.12-1.06.2-2.48.23-4.06 0 0-2.17.58-8.14 2.17-5.98 1.59-7.81 1.78-7.81 1.78l1.11 5.01c.02.11.05.22.07.33 1.5.99 3.09 1.81 4.77 2.56 4.37-2.17 6.87-4.14 6.87-4.14v.06a15.52 15.52 0 002.9-3.71" fill="#e55645"/><path class="st3" d="M31.99 16.21c-.04-.09 1.03.68 1.41.92.39.25.62.43.62.6 0 .17-.27.33-.63.33s-.92-.11-.96-.26c0 0 .6-.02.94-.02h.29s-1.4-1.04-1.67-1.57m7.51.11s-1.06 1.28-1.09 1.34c-.04.06-.17.34.18.3.35-.05 1.12-.23 1.22-.29.11-.06.07-.2-.11-.17-.21.02-.69.04-.99.1l.84-1.26s.03-.12-.05-.02m-3.15 6.12s.81-.35 1.09-1.01.04-.92-.44-.99c-.48-.06-1.34-.03-1.74.35-.4.37-.35.73-.06.95.29.23.85.61 1.15.7"/><path class="st1" d="M35.94 23.69s-.18.38-.46.6c-.24.2-.57.37-1.02.39-.64.03-1.06-.17-1.45-.45-.21-.14-.4-.25-.54-.44-.16-.18-.36-.26-.36-.26s.75 4.12 2.58 4.77c1.82.65 2.15-.75 2.21-1.14.05-.32 0-2.09-.83-3.23-.01-.31-.03-.1-.13-.24"/><path class="st3" d="M34.3 24.83h-.02c-1.3-.01-2.3-1.36-2.34-1.42a.141.141 0 01.03-.2c.07-.05.16-.04.2.03.01.01.96 1.29 2.12 1.3h.01c.58 0 1.13-.33 1.63-.99l.14-.19.11.21c0 .01.37.76.99.8.5.03 1.06-.41 1.62-1.28.05-.07.13-.09.2-.04.07.04.09.13.04.2-.63.97-1.27 1.45-1.88 1.41-.57-.04-.95-.5-1.12-.77-.52.63-1.11.94-1.73.94"/><path class="st0" d="M32.79 35.99c-.8-1.91.1-4.11 2.02-4.91 1.91-.8 4.1.11 4.9 2.02.8 1.91-.1 4.1-2.01 4.9-1.91.8-4.11-.1-4.91-2.01"/><path class="st4" d="M33.84 35.32l4.13-5.41-.81 4.02 1.97-.82L35 38.52l.81-4.02zm7.39-3.82l-3.14 1.31 1.15-5.64-7.5 9.76 3.14-1.3-1.15 5.63zm-9.83 1.67c-.24-.57.03-1.23.6-1.47s1.23.03 1.47.6c.24.58-.03 1.23-.6 1.47-.58.24-1.24-.03-1.47-.6m6.82 4.27a.79.79 0 01.43-1.04c.4-.17.87.02 1.04.42a.799.799 0 01-1.47.62m1.38-1.91c-.08-.18.01-.38.18-.46.18-.07.38.01.46.19.07.18-.01.38-.19.45a.338.338 0 01-.45-.18"/><path class="st1" d="M45.87 21.15s-2.55 2.26-5.08 5.22c-2.53 2.95-5.32 4.89-5.32 4.89-.21-.53-1.62-1.51-1.62-1.51s-3.15-2.15-5.21-3.84c-1.18-.97-2.35-2.18-3.13-3.03-.3-.01-1.07-.05-2.02-.1 4.71 6.99 12.02 8.83 12.02 8.83.87-.14 3.29-1.86 5.1-3.27 1.8-1.41 4.77-4.54 5.96-5.92.6-.69.95-1.42 1.14-1.98-1.11.39-1.84.71-1.84.71"/><path class="st0" d="M65.21 3.49l-8.45 9.45-1.22-2L63.69 0zm-2.57 13.76l5.55-4.11-.79-3.73-5.4 4.81zm-2.72 32.11l6.13 3.19 3.01-2.35-6.7-2.74zM1.95 5.97l3.06-3.36 9.3 9-1.23 2.28zm5.43 10.31l-4.71-3.13-2.4 3.86 5.15 2.4zm6.52 36.27L9.35 55.9l2.81 3.58 4.02-4.03z"/><path class="st1" d="M25.92 27.97s-3.81-1.45-5.2-1.83c-1.4-.39-2.27-.68-4.05.62-1.78 1.31-1.74 3.86-1.74 3.86s.44.96.49 1.44c.04.49-1.21.44-2.03.44-.82 0-.91-1.45-.29-3.13.63-1.69 1.93-3.71 1.93-3.71C9.59 28.5 0 35.05 0 35.05s2.93-.29 8.19.24c5.25.53 4.96 4.68 4.96 4.68s3.52-.97 5.64-1.11c2.12-.15 2.26 2.12 2.26 2.12l.53 3.85s.49-.62 2.65-2.36c1.87-1.49 3.89-1.36 4.39-1.3z"/><path class="st4" d="M85.65 42.03c-.93-1.2-1.4-2.93-1.4-5.19v-7.51c0-2.31.47-4.06 1.39-5.24.92-1.18 2.51-1.77 4.75-1.77 2.14 0 3.65.52 4.54 1.56.89 1.05 1.34 2.55 1.34 4.49v1.76h-4.15v-1.94c0-.62-.03-1.12-.09-1.5-.06-.38-.21-.69-.46-.94s-.64-.38-1.15-.38c-.78 0-1.28.25-1.51.75-.22.5-.33 1.24-.33 2.2v9.53c0 .98.13 1.72.39 2.2.25.48.74.72 1.45.72.72 0 1.19-.24 1.39-.73.21-.5.31-1.22.31-2.19V35.8h4.15v1.74c0 2-.44 3.55-1.32 4.64-.89 1.1-2.4 1.65-4.56 1.65-2.23 0-3.81-.6-4.74-1.8m19.91-5.73l-1.27-8.44-1.24 8.44zm-3.65-13.72h4.74l4.03 20.96h-3.93l-.78-4.6h-3.31l-.8 4.6h-4.02zm11.8 3.15h-3.23v-3.15h10.71v3.15h-3.18v17.81h-4.3z"/><path d="M129.61 22.58h8.13v2.17h-5.21v6.94h4.22v2.07h-4.22v7.69h5.26v2.09h-8.18zm10.53 0h2l5.95 13.92V22.58h2.43v20.96h-1.86l-6.03-14.31v14.31h-2.49zm13.67 0h8.13v2.17h-5.21v6.94h4.22v2.07h-4.22v7.69h5.26v2.09h-8.18zm14.57 9.03c1.26 0 2.17-.25 2.71-.75s.82-1.41.82-2.72c0-.86-.1-1.54-.29-2.03-.19-.49-.53-.85-1.01-1.09-.48-.23-1.16-.35-2.04-.35h-1.3v6.94zm-4.03-9.03h4.22c2.12 0 3.68.43 4.67 1.3.99.88 1.49 2.29 1.49 4.26 0 2.69-.87 4.32-2.59 4.89l2.97 10.51h-2.82l-2.74-9.83h-2.28v9.83h-2.92zM178.66 42c-.84-1.2-1.27-2.98-1.27-5.34v-7.02c0-1.62.17-2.95.51-4 .33-1.04.91-1.84 1.73-2.4.82-.56 1.95-.84 3.38-.84 1.93 0 3.33.49 4.18 1.47.86.98 1.28 2.53 1.28 4.63v.78h-2.74v-.65c0-1-.06-1.77-.18-2.31-.12-.55-.38-.96-.77-1.23-.39-.28-.96-.42-1.72-.42-.81 0-1.41.19-1.81.56-.4.37-.65.87-.76 1.49-.12.62-.17 1.45-.17 2.48v7.77c0 1.6.19 2.76.58 3.46.39.69 1.14 1.04 2.24 1.04 1.09 0 1.83-.38 2.24-1.14.4-.75.61-1.97.61-3.64v-1.46h-2.67v-2.07h5.31v10.38h-1.84l-.29-2.4c-.65 1.77-1.89 2.66-3.72 2.66-1.9 0-3.27-.6-4.12-1.8m16.02-5.86l-4.52-13.56h2.71l3.21 10.12 3.16-10.12h2.75l-4.51 13.56v7.4h-2.8z" fill="#444"/></svg>