<svg xmlns="http://www.w3.org/2000/svg" width="172.26" height="57.07" viewBox="0 0 172.26 57.07"><style>.st1{fill:#f06351}.st4{fill:#111}.st3{fill:#000}</style><path d="M58.15 25.5c-.43.43-1.35.72-1.49-.57-.14-1.3-.19-2.21-.19-2.21s-1.92-3.41-2.64-3.45c-.72-.05-5.81 3.45-7.15 4.94-1.16 1.28-1.39 1.2-1.39 3.45 0 1.71.22 8.13.1 13.05 0 0-2.16.58-8.11 2.16-5.95 1.59-7.78 1.78-7.78 1.78l-1-5.81h-.01s-.02 0-.04-.01h-.03c-.02 0-.03-.01-.05-.01l-2.56-13.13s-3.79-1.44-5.18-1.82c-1.4-.38-2.26-.67-4.03.63-1.78 1.29-1.73 3.83-1.73 3.83s.43.96.48 1.44c.05.48-1.2.43-2.02.43-.81 0-.91-1.43-.28-3.11.62-1.68 1.91-3.7 1.91-3.7s1.2-2.25 2.07-2.88c0 0 .14-.33 1.25-.24 1.1.1 7.24.43 7.24.43l.05-2.26c6.67-.91 13.43-1.37 20.16-1.33-.01.6-.03 1.21-.06 1.82 0 0 4.37-2.02 8.11-1.97 0 0 .43-.05.77.39.33.43 2.4 2.97 2.64 3.35.24.39 1.2 1.73 1.82 3.03 0 0-.43 1.34-.86 1.77m1.47-3.77C54.19 8.74 39.26 2.61 26.26 8.04 13.27 13.46 7.14 28.4 12.57 41.39c3.57 8.55 11.25 14.13 19.79 15.4-.58-2.08-1.16-4.38-1.68-6.83 1.49.99 3.07 1.8 4.74 2.55 0 0-.01 0-.02.01 0 0 .12 2.14.28 4.54 1.77.03 3.55-.12 5.33-.47-.05-.16-.05-.41.01-.76.28-1.86 1.09-5.22 1.24-7.38 1.12-1.06 2.13-2.31 2.89-3.7 0 .02 0 .03-.01.04-.01.14-.03.29-.05.43-.55 4.25-1.7 8.78-2.39 10.03-.24.44-.55.86-.83 1.15 1.36-.32 2.72-.75 4.05-1.31 12.99-5.43 19.13-20.36 13.7-33.36" fill="#fdc305"/><path class="st1" d="M56.21 19.42c.47.6.88 1.13.98 1.29.24.38 1.2 1.72 1.82 3.02 0 0-.43 1.34-.86 1.77-.43.44-1.35.72-1.49-.57-.14-1.3-.19-2.21-.19-2.21s-1.92-3.41-2.64-3.45c-.72-.05-5.81 3.45-7.15 4.94-1.16 1.28-1.39 1.2-1.39 3.45 0 1.5.17 6.62.13 11.18 1.8.21 4.44.71 5.24 1.87 0 0-.29-7.15 7.78-3.4 0 0 .28-9.74 11.41-7.25 0 0-5.64-6.93-13.64-10.64m-10.48-2.31c.15-8.48-1.4-16.46-1.4-16.46s-.14-1.29-.86-.24-1.2 3.93-1.2 3.93c-7.44-.43-12.77.34-12.77.34-.81-2.74-2.2-3.94-2.88-3.65-.67.29-.72 3.31-.72 3.31l-.33 14.1c6.67-.91 13.44-1.37 20.16-1.33"/><path d="M45.15 44.76c.12-1.07.2-2.48.24-4.05 0 0-2.16.58-8.11 2.16-5.95 1.59-7.78 1.78-7.78 1.78l1.11 4.99c.02.11.04.21.07.32 1.49.99 3.07 1.8 4.74 2.55 4.36-2.16 6.85-4.12 6.85-4.12-.01.02-.01.04-.01.06 1.12-1.06 2.13-2.31 2.89-3.69" fill="#e55645"/><path class="st3" d="M31.85 13.99c-.04-.09 1.03.68 1.41.92.38.24.61.42.61.59 0 .17-.26.33-.62.33s-.92-.12-.96-.26c0 0 .6-.02.93-.02h.29s-1.39-1.03-1.66-1.56m7.47.11s-1.04 1.27-1.08 1.33c-.04.06-.17.34.18.3.35-.05 1.11-.23 1.22-.29.11-.06.07-.19-.11-.17-.21.02-.69.05-.99.1l.84-1.26s.03-.11-.06-.01m-3.13 6.09s.81-.35 1.09-1.01.04-.91-.44-.98c-.48-.06-1.34-.03-1.73.34-.4.37-.35.73-.06.96.29.22.85.6 1.14.69"/><path class="st1" d="M35.79 21.44s-.18.37-.46.59c-.24.2-.57.37-1.02.39-.63.03-1.05-.17-1.45-.45-.2-.14-.39-.25-.53-.44-.16-.18-.36-.25-.36-.25s.75 4.1 2.57 4.75c1.82.64 2.14-.75 2.2-1.14.05-.32 0-2.08-.82-3.22-.02-.3-.03-.1-.13-.23"/><path class="st3" d="M34.15 22.57h-.02c-1.29-.01-2.29-1.36-2.33-1.42-.05-.06-.03-.15.03-.2.07-.04.16-.03.2.04.01.01.96 1.29 2.11 1.29h.01c.58 0 1.13-.33 1.63-.98l.14-.19.1.21c0 .01.37.75.99.79.49.03 1.05-.41 1.61-1.27.05-.07.14-.09.2-.05.07.05.09.14.04.2-.63.98-1.26 1.45-1.87 1.41-.56-.04-.94-.49-1.12-.76-.52.62-1.1.93-1.72.93"/><path class="st4" d="M33.69 33.02l4.12-5.39-.81 4 1.96-.81-4.11 5.38.8-4zm7.36-3.81l-3.12 1.3 1.14-5.61-7.46 9.72 3.12-1.3-1.15 5.61z"/><path class="st1" d="M45.67 18.91s-2.54 2.25-5.06 5.19c-2.52 2.95-5.29 4.87-5.29 4.87-.22-.52-1.62-1.5-1.62-1.5s-3.13-2.14-5.18-3.83c-1.18-.96-2.35-2.16-3.13-3.01-.29-.01-1.06-.05-2-.1 4.69 6.96 11.97 8.8 11.97 8.8.86-.15 3.27-1.86 5.07-3.27 1.8-1.4 4.75-4.52 5.94-5.89.6-.69.94-1.42 1.13-1.97-1.11.39-1.83.71-1.83.71m-19.86 6.78s-3.79-1.43-5.18-1.82c-1.39-.38-2.26-.67-4.03.63-1.78 1.29-1.73 3.83-1.73 3.83s.43.96.48 1.44c.05.48-1.2.43-2.02.43-.81 0-.91-1.43-.28-3.11.62-1.68 1.92-3.7 1.92-3.7C9.54 26.22 0 32.75 0 32.75s2.92-.29 8.15.24 4.94 4.65 4.94 4.65 3.51-.96 5.62-1.1c2.11-.15 2.25 2.11 2.25 2.11l.53 3.84s.48-.63 2.64-2.35a6.023 6.023 0 014.37-1.3z"/><path class="st4" d="M89.55 37.12c-.66-.86-.99-2.09-.99-3.69v-5.34c0-1.65.33-2.89.98-3.73.66-.84 1.79-1.26 3.38-1.26 1.52 0 2.6.37 3.23 1.11.63.75.95 1.81.95 3.2v1.25h-2.95v-1.38c0-.44-.02-.8-.06-1.07-.04-.27-.15-.49-.33-.67-.18-.18-.45-.27-.82-.27-.55 0-.91.18-1.07.54-.16.35-.24.87-.24 1.56v6.77c0 .7.1 1.22.28 1.57.18.34.53.51 1.03.51.52 0 .85-.17.99-.52.15-.35.22-.87.22-1.56v-1.45h2.95v1.23c0 1.43-.31 2.53-.94 3.31-.63.78-1.71 1.16-3.24 1.16-1.58 0-2.7-.42-3.37-1.27m14.16-4.08l-.91-6-.88 6zm-2.6-9.75h3.37l2.87 14.9h-2.8l-.55-3.27h-2.36l-.57 3.27h-2.85zm8.39 2.24h-2.3v-2.24h7.62v2.24h-2.26v12.66h-3.06z"/><path d="M120.8 23.29h5.78v1.54h-3.7v4.93h3v1.48h-3v5.46h3.74v1.49h-5.82zm7.49 0h1.42l4.23 9.9v-9.9h1.73v14.9h-1.32l-4.29-10.18v10.18h-1.77zm9.72 0h5.78v1.54h-3.7v4.93h3v1.48h-3v5.46h3.73v1.49h-5.81zm10.36 6.42c.9 0 1.54-.18 1.92-.54.39-.35.58-1 .58-1.93 0-.61-.06-1.09-.2-1.44-.13-.35-.37-.61-.72-.78-.34-.16-.82-.24-1.45-.24h-.92v4.93zm-2.87-6.42h3c1.51 0 2.62.31 3.32.92.71.62 1.06 1.63 1.06 3.03 0 1.92-.61 3.08-1.84 3.48l2.12 7.47h-2.01l-1.95-6.99h-1.62v6.99h-2.08zm10.18 13.81c-.6-.86-.9-2.12-.9-3.8v-4.99c0-1.15.12-2.1.35-2.84.24-.75.65-1.32 1.24-1.71.58-.4 1.38-.6 2.4-.6 1.37 0 2.36.35 2.97 1.05.61.7.91 1.79.91 3.29v.55h-1.95v-.46c0-.71-.04-1.26-.13-1.64-.08-.39-.26-.68-.54-.88-.28-.19-.68-.29-1.22-.29-.58 0-1.01.13-1.29.39-.28.27-.47.62-.54 1.06-.09.44-.12 1.03-.12 1.77v5.52c0 1.14.13 1.96.41 2.46.28.49.81.74 1.59.74.77 0 1.31-.27 1.59-.81.29-.54.44-1.4.44-2.59v-1.03h-1.9v-1.48h3.77v7.38h-1.3l-.21-1.71c-.46 1.26-1.35 1.9-2.65 1.9-1.35 0-2.32-.43-2.92-1.28m11.39-4.17l-3.22-9.64h1.93l2.28 7.19 2.25-7.19h1.95l-3.2 9.64v5.26h-1.99z" fill="#444"/></svg>