<svg xmlns="http://www.w3.org/2000/svg" width="33.32" height="37.61" viewBox="0 0 33.32 37.61"><style>.st2{fill:#000}.st1{fill:#f06351}</style><path d="M6.07 20.72l.05-2.27c6.67-.91 13.44-1.37 20.16-1.33-.01.61-.03 1.21-.05 1.82 0 0 2.92-1.35 6.03-1.81C29.89 10.81 23.8 6.3 16.65 6.3 8.33 6.3 1.43 12.41.18 20.38c2.17.14 5.89.34 5.89.34m21.16 3.5c-1.16 1.29-1.39 1.2-1.39 3.46 0 .91.03 4.9.04 9.17 4.48-2.99 7.44-8.09 7.44-13.88 0-1.05-.1-2.08-.29-3.08-1.81 1.07-4.81 3.24-5.8 4.33M6.35 25.71s-3.79-1.44-5.18-1.82c-.43-.12-.81-.23-1.17-.29.22 6.05 3.67 11.28 8.67 14.01z" fill="#fdc305"/><path class="st1" d="M26.29 17.12c.14-8.48-1.4-16.47-1.4-16.47s-.15-1.29-.87-.24c-.72 1.06-1.2 3.94-1.2 3.94-7.44-.44-12.76.33-12.76.33C9.24 1.95 7.85.74 7.18 1.03c-.68.29-.72 3.32-.72 3.32l-.34 14.1c6.67-.91 13.44-1.37 20.17-1.33"/><path class="st2" d="M12.41 13.99c-.05-.09 1.02.68 1.4.92.39.24.61.43.61.6 0 .16-.26.33-.62.33s-.91-.12-.96-.26c0 0 .6-.03.94-.03h.28s-1.39-1.03-1.65-1.56m7.47.12s-1.05 1.27-1.09 1.33c-.03.06-.16.34.19.29.35-.05 1.11-.22 1.22-.28.11-.06.07-.2-.12-.18-.2.03-.68.05-.98.11l.84-1.26s.02-.12-.06-.01m-3.13 6.09s.81-.35 1.09-1.01.03-.91-.44-.98c-.48-.06-1.34-.03-1.74.34-.4.37-.34.73-.05.95.28.23.84.61 1.14.7"/><path class="st1" d="M16.34 21.45s-.18.37-.45.59c-.25.2-.57.37-1.02.39-.64.03-1.06-.17-1.45-.45-.21-.14-.4-.25-.54-.44a.893.893 0 00-.35-.25s.74 4.1 2.56 4.75c1.82.64 2.15-.75 2.2-1.14.05-.32 0-2.08-.82-3.22-.01-.3-.03-.1-.13-.23"/><path class="st2" d="M14.7 22.58h-.01c-1.3-.01-2.29-1.36-2.34-1.42a.147.147 0 01.04-.2c.06-.05.15-.03.2.03.01.02.95 1.29 2.1 1.3h.01c.59 0 1.13-.33 1.63-.99l.14-.19.1.22c.01 0 .38.75.99.79.5.03 1.06-.41 1.62-1.28.04-.06.13-.08.2-.04.06.04.08.13.04.2-.63.97-1.26 1.45-1.88 1.41-.56-.04-.94-.5-1.11-.77-.52.63-1.1.94-1.73.94"/><path class="st1" d="M26.23 18.92s-2.54 2.24-5.06 5.19c-2.52 2.95-5.29 4.88-5.29 4.88-.22-.53-1.62-1.51-1.62-1.51s-3.14-2.14-5.19-3.83c-1.18-.96-2.34-2.16-3.12-3.01-.3-.01-1.07-.05-2.01-.11 4.69 6.97 11.97 8.81 11.97 8.81.87-.14 3.28-1.86 5.08-3.27 1.8-1.4 4.75-4.52 5.94-5.89.6-.69.94-1.42 1.13-1.97-1.11.38-1.83.71-1.83.71"/></svg>