<svg xmlns="http://www.w3.org/2000/svg" width="100.5" height="18.08" viewBox="0 0 100.5 18.08"><path d="M1.22 16.57C.4 15.57 0 14.12 0 12.22V5.88c0-1.94.4-3.41 1.21-4.4C2.02.49 3.4 0 5.35 0c1.87 0 3.19.44 3.97 1.32.78.88 1.17 2.13 1.17 3.76V6.6H6.63V4.84c0-.68-.07-1.2-.22-1.57-.15-.36-.5-.54-1.06-.54s-.92.19-1.1.58c-.18.38-.26.91-.26 1.59v8.28c0 .69.09 1.22.27 1.59.19.37.55.55 1.09.55.55 0 .9-.18 1.05-.55.15-.37.23-.9.23-1.59v-1.85h3.86v1.52c0 1.65-.39 2.93-1.17 3.85-.78.92-2.1 1.38-3.97 1.38-1.94 0-3.32-.5-4.13-1.51m17.19-4.79l-.95-6.86-.95 6.86zM15.19.23h4.5l3.33 17.59h-3.64l-.6-3.71h-2.62l-.62 3.71h-3.72zm10.56 2.89h-2.69V.23h9.32v2.89h-2.66v14.7h-3.97zM39.53.23h6.92v1.83h-4.43v5.82h3.59v1.73h-3.59v6.45h4.47v1.76h-6.96zm8.95 0h1.7l5.07 11.69V.23h2.08v17.59h-1.59L50.6 5.81v12.01h-2.12zm11.33 0h6.92v1.83H62.3v5.82h3.59v1.73H62.3v6.45h4.47v1.76h-6.96zM72.2 7.81c1.08 0 1.84-.21 2.31-.63.46-.42.69-1.18.69-2.28 0-.72-.08-1.29-.24-1.7-.16-.41-.45-.72-.86-.91-.41-.2-.99-.3-1.74-.3h-1.1v5.82zM68.76.23h3.6c1.81 0 3.13.37 3.98 1.1.84.73 1.27 1.92 1.27 3.57 0 2.26-.74 3.63-2.21 4.11l2.53 8.81h-2.4L73.2 9.57h-1.94v8.25h-2.5zm12.05 16.3c-.72-1.01-1.08-2.5-1.08-4.48V6.16c0-1.36.14-2.48.43-3.35.28-.88.78-1.55 1.47-2.02.7-.47 1.66-.71 2.88-.71 1.65 0 2.83.42 3.56 1.24.73.82 1.09 2.12 1.09 3.89v.65h-2.33v-.54c0-.84-.06-1.49-.16-1.95-.1-.45-.32-.8-.65-1.03-.33-.23-.82-.35-1.47-.35-.69 0-1.2.16-1.54.47-.34.31-.55.73-.65 1.25-.09.52-.14 1.21-.14 2.08v6.52c0 1.34.16 2.31.49 2.89.33.59.97.88 1.91.88.93 0 1.56-.32 1.91-.95.34-.64.52-1.66.52-3.06v-1.22h-2.27V9.11h4.51v8.71h-1.56l-.24-2.02c-.56 1.49-1.62 2.24-3.18 2.24-1.61 0-2.78-.51-3.5-1.51m13.47-4.92L90.42.23h2.31l2.74 8.49L98.16.23h2.34l-3.84 11.38v6.21h-2.38z" fill="#111"/></svg>