<svg xmlns="http://www.w3.org/2000/svg" width="70" height="97" viewBox="0 0 70 97"><path d="M54.84 0h-.38c-.68.35-1.09.94-1.44 1.59-.58 1.09-1 2.25-1.32 3.44-.21.81-.65 1.2-1.48 1.34-2.33.41-4.04 1.73-5.23 3.75-.74 1.25-1.32 2.58-1.84 3.94-1.43 3.68-2.52 7.48-3.85 11.2-.64 1.77-.66 1.75-2.57 1.77-2.26.02-2.1-.36-2.14 2.14-.01.79.24 1.19 1.08 1.15.26-.01.65-.13.75.22.08.29-.24.49-.43.69-1.19 1.26-2.69 1.99-4.34 2.43-1.9.51-3.83.91-5.69 1.53-4.74 1.6-9.14 3.82-12.55 7.58-2.09 2.29-3.52 5.02-4.74 7.84-3.72 8.6-5.46 17.71-6.84 26.9-.65 4.3-1.1 8.63-1.46 12.97-.18 2.17-.39 4.33-.37 6.51h33.32c.12-.46-.07-.87-.23-1.28-.68-1.75-2.07-2.66-3.83-3.07-.69-.16-.78-.37-.35-.91.73-.93 1.22-2 1.59-3.11 1.64-4.81 2.27-9.82 3.05-14.8.61-3.8 1.5-7.47 3.48-10.83 1.46-2.47 3.3-4.62 5.6-6.37.83-.63.85-.63 1 .44.09.72.12 1.45.16 2.17.29 4.73.26 9.45-.17 14.17-.34 3.68-.48 7.35-.16 11.04.37 4.26 1.16 8.43 2.24 12.55h13.33c-.32-2.19-2.11-4.02-4.24-4.44-1.29-.25-2.53-.08-3.77.21-.6.13-.85.03-.9-.65-.39-5.32-.12-10.61.96-15.82 1.26-6.03 2.44-12.07 3.07-18.19.26-2.54 1.03-4.82 2.27-7.02 1.2-2.12 2.24-4.33 3.41-6.46.93-1.69 1.1-3.4.41-5.19-.27-.71-.53-1.42-.86-2.1-.96-1.96-1.97-3.89-2.91-5.85-.49-1.02-.39-1.13.71-1.15 1.63-.04 1.63-.04 1.65-1.64.01-.22 0-.45 0-.67.02-.68-.25-1.07-1.01-1.01-.51.04-1.02 0-1.52.01-.7.01-.9-.29-.73-.95.58-2.28 2.78-4.15 5.14-4.44 2.24-.27 4.43.04 6.61.43.65.12 1.01-.03 1.25-.64.4-1 .85-1.97 1.29-2.95.19-.41.2-.77-.09-1.15-3.18-4.1-6.64-7.9-11.37-10.3-.5-.25-.77-.58-.89-1.13-.3-1.42-.65-2.83-1.27-4.16-.32-.69-.69-1.34-1.4-1.73" fill="#1a150f"/></svg>