<svg xmlns="http://www.w3.org/2000/svg" width="512" height="512" viewBox="0 0 512 512" shape-rendering="geometricPrecision" text-rendering="geometricPrecision" image-rendering="optimizeQuality" fill-rule="evenodd" clip-rule="evenodd"><path d="M102.023 26c5.592 0 20.794 15.294 24.75 19.25 4.005 4.005 7.113 6.743 10.673 11.327 3.258 4.194 6.773 7.567 10.155 11.845 8.05 10.18 20.96 27.657 27.47 38.531 4.865 8.128 12.89 20.151 15.638 29.494 1.22 4.147 1.2 4.292-.985 7.168-1.877 2.47-3.485 3.518-5.835 5.25-8.949 6.595-16.587 11.547-26.444 17.557l-13.436 8.564c-35.614 23.485-36.862 37.389-16.568 71.596 22.306 37.597 45.343 65.478 77.824 94.176l32.033 25.968C249.564 375.901 284.71 398 300.023 398c11.217 0 21.592-10.397 27.245-16.755 3.038-3.419 6.636-8.673 9.312-12.688 7.833-11.752 22.597-38.124 31.181-45.89 5.49-4.967 12.41.444 22.27 5.325 5.009 2.481 8.953 5.28 13.804 8.196 19.053 11.454 46.729 32.853 61.938 48.062 3.526 3.526 20.25 20.474 20.25 24.75 0 13.057-15.258 32.319-23.7 42.299-10.776 12.74-34.203 34.701-51.3 34.701-15.114 0-18.003-.587-32.833-2.167-7.006-.746-17.988-3.007-24.371-4.629-53.363-13.556-108.604-42.189-151.107-76.893l-30.953-26.046c-5.077-5.106-9.464-8.476-14.486-13.515l-27.988-30.011c-9.802-10.068-30.226-37.109-37.664-48.336-3.918-5.913-7.49-10.804-11.177-16.824-19.813-32.354-33.479-61.107-44.555-98.444-3.322-11.197-7.936-37.047-8.812-48.188-2.532-32.177 3.094-36.99 19.086-56.807 8.027-9.946 6.443-7.091 14.094-13.906C68.528 42.866 90.105 26 102.023 26zm-102 76c0 31.617 6.534 62.878 14.608 87.392 19.166 58.189 49.282 104.853 87.252 151.748l11.718 13.282c2.478 3.208 3.41 4.084 6.171 6.829 2.292 2.278 4.406 4.137 6.494 6.507l19 19c4.887 4.303 7.547 7.818 12.906 12.093l20.416 17.585c27.494 21.468 68.693 50.905 100.295 63.704 5.46 2.211 11.613 5.409 17.272 7.728 6.358 2.605 12.576 4.623 18.868 7.132 28.833 11.498 65.264 17 97 17 34.883 0 81.428-48.915 94.586-80.414 10.921-26.143 5.437-38.08-18.836-62.336-22.591-22.574-88.191-75.25-116.75-75.25-14.921 0-28.98 16.706-36.326 28.674l-18.117 28.883c-4.533 6.8-9.138 13.535-15.373 18.627L299.023 372c-9.146-4.84-14.065-6.031-25.819-13.181-11.022-6.706-25.958-16.079-35.439-24.561l-40.996-38.003c-14.159-13.996-33.008-40.055-43.182-56.818-6.748-11.116-8.873-17.572-13.564-26.437 10.311-11.863 15.428-14.751 30.953-24.047 15.181-9.091 47.047-27.436 47.047-46.953 0-19.972-20.815-48.594-31.402-64.597C172.749 56.435 128.323 0 104.023 0 93.282 0 90.245 1.317 80.438 5.414 67.928 10.64 52.944 21.68 42.765 30.742 25.633 45.995.023 73.153.023 102z" fill="#826550"/></svg>