<svg xmlns="http://www.w3.org/2000/svg" width="420" height="460" viewBox="0 0 420 460" shape-rendering="geometricPrecision" text-rendering="geometricPrecision" image-rendering="optimizeQuality" fill-rule="evenodd" clip-rule="evenodd"><defs><style>.fil0{fill:#826550}</style></defs><g id="Слой_x0020_1"><g id="_1609021108736"><path class="fil0" d="M119.95 429.043c0-13.333-.002-26.666 0-40 .003-30.862-6.03-28.493-38.574-41.426-6.653-2.644-7.564-3.359-13.034-6.966-30.004-19.778-40.723-60.936-45.572-94.428-.657-4.535-1.818-13.043-1.854-18.146-.055-7.846-.966-11.463-.966-19.034 0-32.173 5.909-93.856 20.327-120.671 2.763-5.137 5.576-9.447 9.08-13.921 16.378-20.907 46.582-36.921 74.18-43.82 14.164-3.54 45.034-9.457 60.373-9.627 30.427-.337 30.442-2.197 66.22 1.859 47.05 5.334 99.352 15.002 126.636 57.364 17.394 27.005 26.01 97.183 22.33 129.963-.581 5.173.286 10.534-.293 15.707-3.53 31.54-3.929 46.83-17.561 78.439-14.435 33.475-37.681 47.254-72.888 56.112-20.596 5.182-25.258 3.572-41.979 6.021-5.343.782-10.031.133-15.279.721l-30.112 1.888c-5.34.007-10.706-.017-16.048-.048-6.512-.037-22.825.891-27.982 4.018-4.84 2.935-5.362 4.589-8.251 7.749-5.102 5.582-10.587 10.58-16.003 15.996l-16.001 16c-4.365 4.366-12.336 13.295-16.749 16.25zm-120-232v21c0 45.858 14.179 101.67 45.156 129.844 10.962 9.971 18.112 15.494 32.986 21.014 5.101 1.893 21.858 5.982 21.858 11.142v80c24.386 0 15.823 2.677 34.75-16.25l42.999-43.001c2.659-2.643 6.299-6.937 8.925-9.075 5.876-4.785 23.234-.783 31.903-2.096l49.428-2.572c28.021-.386 71.69-10.837 94.581-27.419 28.703-20.791 43.831-52.642 50.834-88.166 11.291-57.279 10.702-158.153-21-204.841-20.887-30.761-51.229-46.221-88.42-55.58C231.941-7.078 122.525-6.363 60.54 36.634c-2.466 1.711-4.695 3.32-6.815 5.185C13.821 76.912 10.901 100.695 3.506 151.6 1.444 165.798-.05 181.586-.05 197.043z"/><path class="fil0" d="M79.95 129.043c0 13.128 7.571 28.478 12.709 40.291 5.651 12.993 18.105 35.14 26.572 46.428l21.013 26.987c14.046 16.775 46.278 44.308 66.024 55.975 11.347 6.705 18.531 12.062 31.255 17.746 22.859 10.214 41.09 24.914 67.334-.519l4.354-4.646c2.245-2.359 3.13-3.674 4.699-6.301 15.347-25.7-.195-32.442-26.538-51.382-2.777-1.997-4.907-3.791-7.425-5.576-30.16-21.388-40.691 4.719-46.528 9.467-11.873 9.657-22.86 2.328-38.158-6.781-8.21-4.889-13.668-9.522-20.21-15.79a29.473 29.473 0 01-.507-.493 29.473 29.473 0 01-.493-.507c-5.933-6.197-10.596-11.221-15.171-18.829-39.853-66.271 49.155-28.457-7.352-100.648-5.54-7.077-12.275-15.26-19.405-20.596-8.559-6.406-18.36-3.952-27.865.483-4.806 2.242-8.017 4.814-11.904 8.096-6.289 5.313-12.404 17.289-12.404 26.595zm141-39c12.137 0 26.034 3.515 34.873 7.128 13.45 5.497 26.943 16.189 35.423 27.576 3.204 4.304 5.474 7.947 8.297 12.702 8.618 14.515 9.407 29.715 9.407 46.594 0 9.271-4.578 16.558.394 22.604 4.521 5.496 16.365 5.588 18.525-6.684 8.524-48.44-11.581-90.739-50.341-114.498-21.299-13.057-37.611-15.421-62.578-15.421-38.095 0-26.668 24.906-12.593 22.502 5.454-.932 12.894-2.503 18.593-2.503z"/><path class="fil0" d="M198.949 111.043c0 4.24 4.902 10 9 10 14.591 0 28.565-2.398 44.014 7.987 11.896 7.997 19.623 16.203 24.379 30.621 5.521 16.735 2.608 19.916 2.608 32.392 0 8.971 21 17.531 21-9v-9.999c0-35.974-37.007-73.001-73.001-73.001-8.447 0-28-1.803-28 11z"/><path class="fil0" d="M209.95 139.043c0 10.862 4.697 9.939 14.288 11.712 34.751 6.425 17.761 39.289 34.712 39.289 17.85 0 10.006-23.933 6.024-32.025-14.146-28.747-55.024-36.27-55.024-18.976z"/></g></g></svg>